<?xml version="1.0" encoding="UTF-8"?><svg id="_レイヤー_2" xmlns="http://www.w3.org/2000/svg" viewBox="0 0 85.2494 98.43753"><defs><style>.cls-1{fill:#fff;}</style></defs><g id="_レイヤー_2-2"><path class="cls-1" d="M14.20823,32.81251v16.40625s14.20823,8.20313,14.20823,8.20313h.00001c8.79208,5.07612,14.20822,14.45715,14.20822,24.60937v.00002l-14.20823-8.20313-14.20823-8.20313v16.40625S0,73.82815,0,73.82815v-16.40625s0-16.40625,0-16.40625v-16.40625s14.20823,8.20313,14.20823,8.20313ZM14.20823,32.81251h.00001c8.79208,5.07612,19.62436,5.07612,28.41644,0h.00001s14.20823-8.20314,14.20823-8.20314l14.20823,8.20313,14.20823-8.20313-14.20823-8.20313-14.20823-8.20313L42.6247,0l-14.20823,8.20313,14.20823,8.20313-14.20823,8.20313-14.20823,8.20313ZM42.6247,82.03127v16.40625s14.20823-8.20313,14.20823-8.20313l14.20823-8.20313,14.20823-8.20313v-16.40625s-14.20823,8.20313-14.20823,8.20313v-16.40625s0-16.40625,0-16.40625h-.00001c-8.79208,5.07612-14.20822,14.45715-14.20822,24.60937v16.40627s-14.20823,8.20313-14.20823,8.20313Z"/></g></svg>