<?xml version="1.0" encoding="UTF-8"?><svg id="_レイヤー_2" xmlns="http://www.w3.org/2000/svg" viewBox="0 0 287.1101 98.43753"><defs><style>.cls-1{fill:#fff;}</style></defs><g id="_レイヤー_2-2"><path class="cls-1" d="M14.20823,32.81251v16.40625s14.20823,8.20313,14.20823,8.20313h.00001c8.79208,5.07612,14.20822,14.45715,14.20822,24.60937v.00002l-14.20823-8.20313-14.20823-8.20313v16.40625S0,73.82815,0,73.82815v-16.40625s0-16.40625,0-16.40625v-16.40625s14.20823,8.20313,14.20823,8.20313ZM14.20823,32.81251h.00001c8.79208,5.07612,19.62436,5.07612,28.41644,0h.00001s14.20823-8.20314,14.20823-8.20314l14.20823,8.20313,14.20823-8.20313-14.20823-8.20313-14.20823-8.20313L42.6247,0l-14.20823,8.20313,14.20823,8.20313-14.20823,8.20313-14.20823,8.20313ZM42.6247,82.03127v16.40625s14.20823-8.20313,14.20823-8.20313l14.20823-8.20313,14.20823-8.20313v-16.40625s-14.20823,8.20313-14.20823,8.20313v-16.40625s0-16.40625,0-16.40625h-.00001c-8.79208,5.07612-14.20822,14.45715-14.20822,24.60937v16.40627s-14.20823,8.20313-14.20823,8.20313Z"/><path class="cls-1" d="M117.35229,19.49079h-9.24805v-6.31836h25.63818v6.31836h-9.24805v26.0957h-7.14209v-26.0957Z"/><path class="cls-1" d="M132.87182,29.37946c0-2.59375.43506-4.94434,1.30469-7.05029.87012-2.10596,2.08301-3.89893,3.63965-5.37939,1.55664-1.47998,3.40283-2.6167,5.53955-3.41064,2.13623-.79346,4.47119-1.19043,7.00488-1.19043,2.5332,0,4.86816.39697,7.00488,1.19043,2.13574.79395,3.98291,1.93066,5.53955,3.41064,1.55664,1.48047,2.76953,3.27344,3.63965,5.37939.86963,2.10596,1.30469,4.45654,1.30469,7.05029,0,2.59473-.43506,4.94482-1.30469,7.05078-.87012,2.10596-2.08301,3.89893-3.63965,5.37939s-3.40381,2.61719-5.53955,3.41064c-2.13672.79346-4.47168,1.19043-7.00488,1.19043-2.53369,0-4.86865-.39697-7.00488-1.19043-2.13672-.79346-3.98291-1.93018-5.53955-3.41064s-2.76953-3.27344-3.63965-5.37939c-.86963-2.10596-1.30469-4.45605-1.30469-7.05078ZM140.28832,29.37946c0,1.52686.23633,2.92285.70996,4.18896.47266,1.26709,1.15137,2.36572,2.03711,3.29639.88477.93164,1.9458,1.65625,3.18213,2.1748,1.23584.51953,2.6167.77832,4.14307.77832,1.52588,0,2.90723-.25879,4.14307-.77832,1.23633-.51855,2.29639-1.24316,3.18213-2.1748.88477-.93066,1.56396-2.0293,2.03711-3.29639.47314-1.26611.70996-2.66211.70996-4.18896,0-1.49512-.23682-2.88428-.70996-4.16602s-1.15234-2.3877-2.03711-3.31934c-.88574-.93066-1.9458-1.65527-3.18213-2.1748-1.23584-.51855-2.61719-.77832-4.14307-.77832-1.52637,0-2.90723.25977-4.14307.77832-1.23633.51953-2.29736,1.24414-3.18213,2.1748-.88574.93164-1.56445,2.0376-2.03711,3.31934-.47363,1.28174-.70996,2.6709-.70996,4.16602Z"/><path class="cls-1" d="M169.95532,13.17243h7.14209v12.08691h13.87207v-12.08691h7.14209v32.41406h-7.14209v-14.00928h-13.87207v14.00928h-7.14209V13.17243Z"/><path class="cls-1" d="M211.70776,13.17243h5.90625l14.10059,32.41406h-8.05762l-2.79248-6.86719h-12.59033l-2.70117,6.86719h-7.87451l14.00928-32.41406ZM214.45483,22.60358l-3.93701,10.07227h7.91992l-3.98291-10.07227Z"/><path class="cls-1" d="M231.5769,13.17243h7.14209v13.46045l12.59033-13.46045h9.33936l-14.42139,15.0625,15.65771,17.35156h-9.98047l-13.18555-15.38281v15.38281h-7.14209V13.17243Z"/><path class="cls-1" d="M287.1101,33.08795c0,1.92285-.29053,3.69336-.87012,5.31055-.58008,1.61816-1.44189,3.02197-2.58643,4.21191-1.14453,1.19043-2.57178,2.12207-4.28076,2.79297-1.70947.6709-3.67822,1.00732-5.90576,1.00732-2.25928,0-4.24268-.33643-5.95166-1.00732-1.70996-.6709-3.13623-1.60254-4.28076-2.79297-1.14453-1.18994-2.00732-2.59375-2.58691-4.21191-.58008-1.61719-.86963-3.3877-.86963-5.31055V13.17243h7.14209v19.64062c0,1.00732.16016,1.93896.48047,2.79297.3208.85498.77051,1.59521,1.35059,2.22021.57959.62598,1.27393,1.11475,2.08301,1.46533.80859.35107,1.68604.52637,2.63281.52637.94531,0,1.81543-.17529,2.60938-.52637.79346-.35059,1.47998-.83936,2.06006-1.46533.57959-.625,1.03027-1.36523,1.35059-2.22021.3208-.854.48096-1.78564.48096-2.79297V13.17243h7.14209v19.91553Z"/><path class="cls-1" d="M108.81323,53.07477h10.02637c2.80762,0,5.18848.34375,7.14209,1.03027,1.95264.68701,3.57812,1.56445,4.87549,2.63232,1.29736,1.06885,2.31934,2.25146,3.06787,3.54834.74707,1.29785,1.29688,2.54102,1.64795,3.73145.35059,1.18994.57227,2.26611.66406,3.22754.09131.96143.13721,1.64111.13721,2.03711,0,.39697-.0459,1.07617-.13721,2.0376-.0918.96143-.31348,2.03711-.66406,3.22754-.35107,1.19043-.90088,2.43408-1.64795,3.73096-.74854,1.29785-1.77051,2.48047-3.06787,3.54834-1.29736,1.06885-2.92285,1.9458-4.87549,2.63232-1.95361.68701-4.33447,1.03027-7.14209,1.03027h-10.02637v-32.41406ZM111.83471,82.74176h6.22656c2.13623,0,4.13525-.2666,5.99756-.80127,1.86133-.5332,3.47949-1.35059,4.85303-2.44922,1.37305-1.09863,2.45654-2.49512,3.25049-4.18896.79297-1.69385,1.19043-3.70068,1.19043-6.02051,0-2.31885-.39746-4.32617-1.19043-6.02002-.79395-1.69434-1.87744-3.09033-3.25049-4.18945-1.37354-1.09863-2.9917-1.91504-4.85303-2.44922-1.8623-.53369-3.86133-.80127-5.99756-.80127h-6.22656v26.91992Z"/><path class="cls-1" d="M141.3186,53.07477h3.02148v32.41406h-3.02148v-32.41406Z"/><path class="cls-1" d="M148.64379,53.07477h3.25049l10.43848,28.43115,10.52979-28.43115h3.20459l-12.31543,32.41406h-3.02148l-12.08643-32.41406Z"/><path class="cls-1" d="M180.37036,53.07477h19.82373v2.74707h-16.80225v11.53711h15.74902v2.74707h-15.74902v12.63574h17.53467v2.74707h-20.55615v-32.41406Z"/><path class="cls-1" d="M210.63549,55.91217h1.74268c.31738,0,.57861.04346.78418.12939.20508.08643.36768.19629.48633.3291.11914.1333.20215.28223.24854.44824.04688.16553.07031.3252.07031.47949,0,.15381-.02344.31396-.07031.47949-.04639.16553-.12939.31494-.24854.44775-.11865.1333-.28125.24268-.48633.3291-.20557.08643-.4668.12939-.78418.12939h-1.0708v2.18408h-.67188v-4.95605ZM211.30737,58.09626h.88184c.13086,0,.26025-.01074.38867-.03174s.24268-.05908.34277-.11523c.10059-.05615.18115-.13672.2417-.2417s.09082-.24121.09082-.40918-.03027-.30469-.09082-.40967-.14111-.18555-.2417-.2417c-.1001-.05566-.21436-.09424-.34277-.11523s-.25781-.03174-.38867-.03174h-.88184v1.59619Z"/><path class="cls-1" d="M214.62524,57.55036h.62988v.51074h.01416c.04199-.08838.09766-.16895.16797-.24121.06982-.07227.14795-.13428.23438-.18555s.18066-.09229.28369-.12256c.10254-.03027.20508-.04541.30762-.04541.10303,0,.19629.01367.28027.04199l-.02783.67871c-.05176-.01367-.10303-.02539-.1543-.03467s-.10254-.01416-.15381-.01416c-.30811,0-.54395.08643-.70703.25879-.16357.17285-.24512.44141-.24512.80518v1.66602h-.62988v-3.31787Z"/><path class="cls-1" d="M216.92797,59.20905c0-.24219.04542-.46875.13673-.67871.09082-.20996.21582-.39453.37451-.55322.1582-.15869.34521-.2832.56006-.37451.21436-.09082.44531-.13623.69287-.13623.24707,0,.47803.04541.69287.13623.21484.09131.40137.21582.56006.37451s.28369.34326.37451.55322.13623.43652.13623.67871c0,.24268-.04541.47021-.13623.68262s-.21582.39697-.37451.55322-.34521.27979-.56006.37061c-.21484.09131-.4458.13672-.69287.13672-.24756,0-.47852-.04541-.69287-.13672-.21484-.09082-.40186-.21436-.56006-.37061-.15869-.15625-.28369-.34082-.37451-.55322-.09131-.2124-.13673-.43994-.13673-.68262ZM217.59985,59.20905c0,.16797.02588.32324.07715.46582.05127.14209.12354.26367.2168.36377.09375.10059.20801.17969.34326.23828.13525.05811.28711.0874.45508.0874s.31934-.0293.45508-.0874c.13525-.05859.24951-.1377.34277-.23828.09326-.1001.16553-.22168.21729-.36377.05127-.14258.07666-.29785.07666-.46582s-.02539-.32275-.07666-.46533c-.05176-.14209-.12402-.26367-.21729-.36377-.09326-.10059-.20752-.17969-.34277-.23828-.13574-.05811-.28711-.0874-.45508-.0874s-.31982.0293-.45508.0874c-.13525.05859-.24951.1377-.34326.23828-.09326.1001-.16553.22168-.2168.36377-.05127.14258-.07715.29736-.07715.46533Z"/><path class="cls-1" d="M224.57153,60.86823h-.62988v-.47607h-.01368c-.12157.17725-.28857.31494-.50048.41309-.2124.09814-.43066.14697-.65479.14697-.25684,0-.48877-.04443-.69629-.13281-.20801-.08887-.38525-.2124-.53223-.37109s-.26025-.34326-.33936-.55322c-.07959-.20996-.11914-.43848-.11914-.68604,0-.24707.03955-.47705.11914-.68945.0791-.2124.19238-.39648.33936-.55273s.32422-.27881.53223-.36768c.20752-.08838.43945-.13281.69629-.13281.23828,0,.46191.05029.67188.15039.20996.10059.37109.23682.48339.40967h.01368v-2.4502h.62988v5.29199ZM222.84985,60.36432c.16797,0,.31934-.0293.45508-.0874.13525-.05859.24951-.1377.34277-.23828.09326-.1001.16553-.22168.21729-.36377.05127-.14258.07666-.29785.07666-.46582s-.02539-.32275-.07666-.46533c-.05176-.14209-.12402-.26367-.21729-.36377-.09326-.10059-.20752-.17969-.34277-.23828-.13574-.05811-.28711-.0874-.45508-.0874s-.31982.0293-.45508.0874c-.13525.05859-.24951.1377-.34326.23828-.09326.1001-.16553.22168-.2168.36377-.05127.14258-.07715.29736-.07715.46533s.02588.32324.07715.46582c.05127.14209.12354.26367.2168.36377.09375.10059.20801.17969.34326.23828.13525.05811.28711.0874.45508.0874Z"/><path class="cls-1" d="M228.46362,60.86823h-.62988v-.51123h-.01416c-.07959.17773-.2168.32129-.41309.43066-.1958.10986-.42236.16455-.67871.16455-.16357,0-.31738-.02441-.4624-.07324-.14453-.04932-.27148-.125-.38135-.22754-.10986-.10303-.19727-.23486-.26221-.39551-.06543-.16113-.09814-.35107-.09814-.5708v-2.13477h.62988v1.95996c0,.15381.021.28564.06299.39551.04199.10938.09814.19824.16797.26611.07031.06738.15039.1167.2417.14697.09082.03027.18555.04541.2832.04541.13086,0,.25195-.021.36426-.06299.11182-.04199.20996-.1084.29395-.19971.08398-.09082.14941-.20654.1958-.34619.04688-.14014.07031-.30566.07031-.49707v-1.70801h.62988v3.31787Z"/><path class="cls-1" d="M231.78881,58.43219c-.1167-.12109-.23926-.21338-.36768-.27637s-.28125-.09473-.4585-.09473c-.17285,0-.32324.03174-.45166.09473s-.23535.14941-.32178.25879c-.08643.10986-.15186.23584-.1958.37793-.04443.14258-.06689.29053-.06689.44482,0,.15381.02588.2998.07715.4375s.12354.25781.2168.36035c.09375.10254.20557.18311.33643.2417.13037.05811.27734.0874.44092.0874.17725,0,.3291-.03174.45508-.09473s.24219-.15479.34961-.27637l.44824.44824c-.16357.18164-.35352.3125-.57031.3916-.21729.07959-.44727.11914-.68994.11914-.25635,0-.49121-.04199-.70312-.12598-.2124-.08398-.39551-.20166-.5498-.35352-.15381-.15137-.27295-.3335-.35693-.5459s-.12598-.44678-.12598-.70361c0-.25635.04199-.49219.12598-.70703.08398-.21436.20166-.39893.35352-.55273.15186-.1543.3335-.27441.5459-.36084.2124-.08594.44922-.12939.71045-.12939.24268,0,.4751.04346.69678.12939.22168.08643.41406.21826.57764.39551l-.47607.43408Z"/><path class="cls-1" d="M233.26586,59.44001c0,.14502.03125.27686.09424.39551.06299.11914.146.2207.24854.30469s.22168.14941.35693.1958c.13525.04688.27539.07031.41992.07031.19629,0,.3667-.04541.51123-.13672.14453-.09082.27734-.21094.39893-.36035l.47607.36377c-.3501.45312-.83984.6792-1.47021.6792-.26123,0-.49805-.04443-.71045-.13281-.2124-.08887-.3916-.21143-.53906-.36768-.14697-.15625-.25977-.34082-.33936-.55322-.0791-.21191-.11914-.44189-.11914-.68945,0-.24707.04346-.47705.12988-.68945.08594-.2124.20508-.39648.35693-.55273.15137-.15625.33252-.27881.54248-.36768.20996-.08838.43848-.13281.68604-.13281.29395,0,.54248.05127.74561.15381.20264.10254.36963.23682.50049.40234.13037.16602.2251.35254.2832.56006.05859.20801.0874.41895.0874.63379v.22363h-2.65967ZM235.25366,58.9361c-.00488-.13965-.02686-.26807-.06641-.38477s-.09912-.21826-.17871-.30469c-.0791-.08643-.17822-.15381-.29736-.20312-.11914-.04883-.25781-.07324-.4165-.07324-.15381,0-.29492.0293-.42334.0874-.12842.05859-.23682.13428-.32568.22754s-.15723.19727-.20654.31152c-.04883.11426-.07324.22754-.07324.33936h1.98779Z"/><path class="cls-1" d="M240.00659,60.86823h-.62988v-.47607h-.01367c-.12158.17725-.28857.31494-.50049.41309-.2124.09814-.43066.14697-.65479.14697-.25684,0-.48877-.04443-.69629-.13281-.20801-.08887-.38525-.2124-.53223-.37109s-.26025-.34326-.33936-.55322c-.07959-.20996-.11914-.43848-.11914-.68604,0-.24707.03955-.47705.11914-.68945.0791-.2124.19238-.39648.33936-.55273s.32422-.27881.53223-.36768c.20752-.08838.43945-.13281.69629-.13281.23828,0,.46191.05029.67188.15039.20996.10059.37109.23682.4834.40967h.01367v-2.4502h.62988v5.29199ZM238.28491,60.36432c.16797,0,.31934-.0293.45508-.0874.13525-.05859.24951-.1377.34277-.23828.09326-.1001.16553-.22168.21729-.36377.05127-.14258.07666-.29785.07666-.46582s-.02539-.32275-.07666-.46533c-.05176-.14209-.12402-.26367-.21729-.36377-.09326-.10059-.20752-.17969-.34277-.23828-.13574-.05811-.28711-.0874-.45508-.0874s-.31982.0293-.45508.0874c-.13525.05859-.24951.1377-.34326.23828-.09326.1001-.16553.22168-.2168.36377-.05127.14258-.07715.29736-.07715.46533s.02588.32324.07715.46582c.05127.14209.12354.26367.2168.36377.09375.10059.20801.17969.34326.23828.13525.05811.28711.0874.45508.0874Z"/><path class="cls-1" d="M242.90453,55.57624h.62988v2.4502h.01416c.11182-.17285.27295-.30908.48291-.40967.20996-.1001.43408-.15039.67188-.15039.25684,0,.48877.04443.69678.13281.20752.08887.38477.21143.53174.36768s.26025.34033.33936.55273c.07959.2124.11914.44238.11914.68945,0,.24756-.03955.47607-.11914.68604-.0791.20996-.19238.39453-.33936.55322s-.32422.28223-.53174.37109c-.20801.08838-.43994.13281-.69678.13281-.22412,0-.44189-.04883-.6543-.14697s-.37939-.23584-.50049-.41309h-.01416v.47607h-.62988v-5.29199ZM244.6267,60.36432c.16797,0,.31934-.0293.45459-.0874.13525-.05859.25-.1377.34326-.23828.09326-.1001.16553-.22168.2168-.36377.05127-.14258.07715-.29785.07715-.46582s-.02588-.32275-.07715-.46533c-.05127-.14209-.12354-.26367-.2168-.36377-.09326-.10059-.20801-.17969-.34326-.23828-.13525-.05811-.28662-.0874-.45459-.0874-.16846,0-.31982.0293-.45508.0874-.13574.05859-.25.1377-.34326.23828-.09326.1001-.16553.22168-.2168.36377-.05127.14258-.07715.29736-.07715.46533s.02588.32324.07715.46582c.05127.14209.12354.26367.2168.36377.09326.10059.20752.17969.34326.23828.13525.05811.28662.0874.45508.0874Z"/><path class="cls-1" d="M246.7893,57.55036h.72803l.98242,2.58984h.01416l.94238-2.58984h.67188l-1.57471,4.03174c-.05615.14453-.11426.27686-.17432.39551-.06055.11914-.13281.2207-.21631.30469s-.18457.14941-.30322.1958c-.11865.04688-.26367.07031-.43555.07031-.09277,0-.18701-.00586-.28223-.01758-.0957-.01172-.1875-.03613-.27539-.07373l.07666-.57373c.125.05127.25.07666.37549.07666.09717,0,.17969-.0127.24658-.03809.06738-.02588.12549-.06299.17383-.1123.04883-.04883.08936-.10596.12207-.17139.03223-.06543.06494-.14014.09717-.22412l.2041-.5249-1.37305-3.33887Z"/><path class="cls-1" d="M217.73044,71.28409h-1.6756c.97136,1.16078,2.87038,2.00101,4.54598,2.33613v.12142c-.50444.13931-.88295.55756-.97136,1.07336-1.65471-.63077-3.00623-1.86938-3.7786-3.46291v3.39977s-.15542.36426-1.2142.36426v-2.87038c-1.2906,1.20883-2.84307,2.10308-4.53627,2.61297l-.10199-.15542c1.5385-.8184,2.85647-1.99641,3.84174-3.43377h-1.03936v.24284c0,.034-.18942.43226-1.20935.43226v-4.63826l1.28706.48568h1.76302v-1.22878h-4.49742l-.068-.21856h4.5557v-1.66103l1.66103.16028c0,.16028-.11656.23313-.44683.2817v1.21906h2.50612l.76252-.95679,1.34534.97136c-.09228.1457-.23798.19913-.55853.19913h-4.03116v1.25792h1.77274l.48568-.63139,1.32106.92765c-.12451.12118-.28446.19945-.45654.22341v3.14722c-.34111.28703-.78635.41902-1.22877.36426l-.03399-.56339ZM214.63179,68.05916h-1.83102v1.38419h1.84073l-.00972-1.38419ZM212.80077,71.06068h1.84073v-1.40362h-1.84073v1.40362ZM217.73044,68.05916h-1.88445v1.38419h1.88444v-1.38419ZM215.84599,71.0801h1.88444v-1.42305h-1.88445v1.42305Z"/><path class="cls-1" d="M221.0865,74.55273c1.04806-.77531,1.93549-1.74686,2.61297-2.86067l1.34534.80137c-.0588.0862-.15803.13582-.26227.13113-.05823.00343-.11661.00343-.17485,0-.99031.93241-2.16267,1.65004-3.44349,2.10786l-.0777-.1797ZM230.21246,65.5239l1.33077.97136c-.09228.13599-.22341.18942-.54397.18942h-9.74763l-.068-.22341h4.5217v-1.80188l1.69503.15542c0,.16513-.13113.24284-.48568.29627v1.34048h2.56926l.72852-.92765ZM228.40573,70.8664h-1.45705v2.8461c0,.78195-.22341,1.34048-1.62703,1.45705,0-.91794-.44197-1.07336-1.28706-1.15107v-.1457h1.52018c.14085,0,.18456-.04371.18456-.16513v-2.86552h-1.45705v.19427s-.1797.44683-1.19963.44683v-3.95345l1.28706.48568h3.93402l.48568-.63139,1.32106.92765c-.13313.12718-.30319.20881-.48568.23313v2.49155s-.32055.32541-1.23363.32541l.01457-.4954ZM224.27743,70.64299h4.1283v-2.3847h-4.1283v2.3847ZM227.90062,71.86205c2.42841.45168,3.18607,1.45705,3.18607,2.11272.02972.33667-.2191.63368-.55577.66341-.01062.00094-.02125.0016-.0319.00198-.15952-.00662-.31342-.06074-.44197-.15542-.5434-.99422-1.29364-1.86039-2.20013-2.54012l.04371-.08257Z"/><path class="cls-1" d="M241.14516,65.06736l1.2822.93251c-.13011.13308-.30115.2186-.48568.24284v8.37316c0,.034-.29627.38855-1.18507.38855v-.8888h-6.71212v.48568c0,.034-.13113.48568-1.16564.48568v-9.90791l1.29192.54396h6.48871l.48568-.65567ZM234.04449,73.88735h6.71212v-7.94576h-6.71212v7.94576ZM238.54191,70.17188c.99565.30112,1.32591.74309,1.32591,1.09764.00423.16442-.06963.32114-.19913.42254l.97136.7091c-.07771.1457-.22827.18942-.51482.18942h-5.79419l-.06314-.22341h2.54497v-2.49155h-1.86016l-.05343-.21856h1.91359v-2.12729h-2.205l-.05343-.22341h4.12344l.55853-.75281,1.0685.7868c-.09228.13113-.23313.18942-.51968.18942h-1.88444v2.12729h.56339l.56339-.73338.97136.75281c-.08742.1457-.22827.19913-.51968.19913h-1.59304v2.49155h1.08793l.4274-.56339c-.19002.0167-.37471-.06826-.48568-.22341-.02412-.48536-.19331-.95232-.48568-1.34048l.11171-.068Z"/><path class="cls-1" d="M252.33042,73.34338l1.37448.97136c-.08742.1457-.23313.19913-.54396.19913h-9.79135l-.06314-.21856h5.92046c.47903-2.01794.84547-4.06096,1.09764-6.11959l1.81645.36912c-.02914.1457-.14084.20884-.45168.21856-.58718,1.91408-1.35138,3.76931-2.2827,5.54163h2.18557l.73823-.96165ZM243.88441,67.52977l-.07285-.22341h4.04573v-2.60326l1.68532.15542c0,.15056-.13114.24284-.48568.28655v2.16128h2.11271l.71881-.93251,1.34534.97136c-.09228.1457-.22827.20399-.53911.20399l-8.81027-.01943ZM245.54059,68.336c1.40847,1.39876,1.89416,2.8121,1.89416,3.82232,0,.86451-.35455,1.41819-.7868,1.41819-.22279-.02093-.42687-.13353-.56339-.31084.03758-.30618.05704-.61432.05828-.9228-.00834-1.35579-.26344-2.69874-.75281-3.96316l.15057-.04371Z"/><path class="cls-1" d="M263.79737,70.92954l1.07336.7868c-.07771.1457-.21856.18942-.50997.18942h-1.53476v1.82616c0,.75281-.16999,1.27249-1.45705,1.39391,0-.76252-.26713-.97136-1.13164-1.03936v-.15542h1.30649c.15542,0,.19913-.05343.19913-.18942v-1.83588h-4.37114l-.05828-.22341h4.41971v-.97136l1.21906.07771v-.30112h-3.6669v.19913c0,.02428-.17485.38855-1.07336.38855v-2.91409c-.11065.03865-.22782.05515-.34484.04857h-1.1705v6.48385c0,.13599-.48568.42254-.91794.42254h-.23798v-6.95497h-1.15106l-.068-.22341h1.21906v-3.22493l1.59304.15542c0,.15542-.10685.23313-.45168.27684v2.79267h.19913l.51968-.8208.81108.69938v-.81109l1.15106.48568h1.14136v-1.05879h-2.79267l-.06314-.22341h2.85581v-1.4959l1.58332.1457c0,.15056-.13114.21856-.45168.27684v1.07336h1.53961l.24284-.31084c-.15664.02596-.31645-.02251-.43226-.13113-.12126-.38044-.38137-.70124-.72852-.89851l.03886-.09714c.16103-.02055.32341-.02867.48568-.02428.82566,0,1.11221.31084,1.11221.62167.00296.06445-.00694.12884-.02914.18942l.97136.6751c-.08742.15056-.22342.19913-.52454.19913h-2.65668v1.04907h1.2142l.42254-.53911,1.16563.79652c-.09599.1032-.22465.17011-.36426.18942v2.55954c-.23839.19003-.527.30649-.83052.33512-.02429.12142-.09228.18942-.43226.23313v.63139h.40797l.55855-.75766ZM258.45487,72.08061c1.30649.21856,1.72417.75281,1.72417,1.19478.00288.35204-.27472.64254-.62653.65567-.18767-.00516-.36428-.08993-.48568-.23313-.0349-.58482-.28385-1.13633-.69938-1.54933l.08742-.068ZM260.48988,67.70947h-1.21906v1.1365h1.21906v-1.1365ZM259.27082,69.07424v1.17049h1.21906v-1.17535l-1.21906.00486ZM262.93772,67.70947h-1.3162v1.1365h1.3162v-1.1365ZM261.62152,70.24473h1.3162v-1.17535h-1.3162v1.17535Z"/><path class="cls-1" d="M268.40163,70.15245l1.7436-.25255v.14085c-.48568.22341-1.04421.48568-1.76303.7868v3.88546s-.15056.3934-1.09764.3934v-3.82232l-1.04907.40797c-.05913.13054-.17289.2283-.31084.26713l-.54396-1.42791c.39826-.03885,1.08793-.11171,1.90387-.22341v-2.62754h-.86451c-.1701.66592-.44205,1.30156-.80623,1.88445l-.18456-.07771c.25741-1.37543.37942-2.77278.36426-4.17201l1.45705.22827c0,.13599-.09713.2137-.37398.25741-.102.56339-.22342,1.13164-.36912,1.66103h.79652v-2.74896l1.55418.1457c0,.15056-.1117.24284-.45654.27684v2.32642h.13599l.56339-.89851,1.01023.91794c-.08742.1457-.24284.19913-.53425.19913h-1.18507l.00972,2.47212ZM274.7155,66.52927l1.21906.97136c-.12843.13098-.30234.20751-.48568.2137-.09713,4.32257-.26226,6.31387-.8548,6.88697-.40384.37429-.94753.55965-1.4959.50997,0-.68481-.08742-.94222-1.21906-1.15107v-.16513c.42254.02428,1.09278.03885,1.39877.03885.14071.02142.2832-.02548.38369-.12628.40312-.37883.54396-2.50612.63139-6.27987h-.13114c-.49539,2.86067-1.62218,5.64848-4.05059,7.43093l-.09713-.15542c1.74846-1.85045,2.6664-4.58484,3.02094-7.28523h-.38855c-.46789,2.096-1.62156,3.97605-3.27835,5.3425l-.07771-.15542c1.18176-1.50956,1.95606-3.2973,2.24871-5.19194h-.38369c-.41037.91323-1.01152,1.72801-1.76303,2.38956l-.14571-.10199c.6751-1.08307,1.24334-3.04523,1.45705-4.99281l1.62704.36426c-.04371.1457-.13599.22341-.42254.2477-.17157.64004-.39408,1.26533-.66538,1.86988h2.9578l.51481-.66053Z"/><path class="cls-1" d="M280.79624,71.50265c-.27884.11556-.57726.17656-.87908.1797h-.20884v-.55853h-1.45705v2.04472l1.24821-.2137c-.16223-.36788-.38011-.7086-.64597-1.01022l.102-.06314c1.4959.53911,1.98158,1.29191,1.98158,1.86016.02251.37231-.25505.69506-.62653.72852-.20052-.00729-.3874-.1034-.50997-.26227-.0206-.32203-.08767-.63939-.19913-.94222-.55368.34483-1.30649.78681-2.27785,1.29677-.04683.13744-.16024.2417-.30112.27684l-.51482-1.43762.68967-.09228v-5.20651c-.19913.18942-.40797.36426-.62167.53425l-.10685-.09228c.74296-1.17175,1.25714-2.47368,1.51533-3.83689l1.71446.1457c0,.13599-.12142.20884-.42254.25741,1.51047.35455,1.99615.97136,1.99615,1.4279.0125.35385-.26421.65084-.61806.66334-.18945.00669-.37215-.0708-.49901-.21165-.11711-.66924-.44766-1.28262-.94222-1.74845-.40722.88536-.94594,1.70408-1.59789,2.42841l.68967.28655h.15056v-1.2482l1.36477.12142c0,.11171-.08742.17485-.32055.20884v.91794h.29141l.38855-.51968.99565.84023c-.11257.09893-.25048.16452-.39826.18942l.01943,3.03551ZM279.70831,68.18058h-1.45705v1.25306h1.45705v-1.25306ZM278.25126,70.91497h1.45705v-1.25792h-1.45705v1.25792ZM285.10909,71.56093l.4274-.55368,1.17535.81595c-.10715.11392-.25225.18474-.40797.19913v2.59354c0,.02428-.30112.33026-1.08793.33026v-.80623h-2.37013v.55368c0,.02428-.13114.43226-1.05878.43226v-7.28523c-.1162.05159-.24198.07807-.36912.07771-.34484,0-.55368-.19913-.55368-.48568.02788-.25978.20418-.47968.45168-.56339.37909-.21402.61032-.61867.60225-1.05393h.16513c.07584.18314.1328.37354.16999.56825h1.08307v-1.66103l1.57361.1457c0,.14085-.1117.20884-.41283.25741v1.25792h.90822l.59253-.59253,1.03936,1.00536c-.08742.08742-.19913.11171-.42254.12142-.25256.22341-.65567.5731-.97136.8208l.80623.56339c-.11237.11217-.25979.18245-.41769.19913v2.08358c-.31685.22164-.70367.32008-1.08793.27684v-.55368h-2.05929v1.25306h2.22442ZM285.32764,67.53948c.04371-.28655.1117-.65567.15542-.93251h-3.20064c.05792.36628-.03301.74051-.25256,1.03936l.86937.37883h1.89902l.4274-.55368.10199.068ZM282.84581,70.08446h2.05929v-1.83588h-2.05929v1.83588ZM282.84581,73.92134h2.37013v-2.14186h-2.37013v2.14186Z"/><path class="cls-1" d="M213.65557,78.74417c0,.034,0,.04857-.04371.04857s-.08742-.07771-.12142-.23798c-.03664-.23871-.14506-.46062-.31084-.63624-.18317-.12684-.40437-.18686-.62653-.16999h-.28655v3.73975c0,.10199.02914.16513.08257.19427.14128.04585.2886.07041.43711.07285.04371,0,.068.02428.068.05828s-.034.06314-.10199.06314h-.87908l-1.04422.02914c-.05828,0-.08742,0-.08742-.04857s0-.03886.02428-.04371c.06789-.00542.1361-.00542.20399,0,.22827,0,.34969-.06314.36426-.16513.01457-.10199,0-.48568,0-1.25306v-2.6664h-.16028c-.25292-.0217-.50586.04153-.71881.1797-.17053.17208-.27389.39947-.29141.6411-.02914.1797-.06314.26712-.11171.26712s-.05343,0-.05343-.07285,0-.1457.02428-.33998c.034-.40312.05343-.6751.06314-.82566h3.14236c.1019.00609.20408.00609.30598,0,0,.26712.04371.6071.09228,1.01993.02428.068.02914.11171.02914.14571Z"/><path class="cls-1" d="M217.847,79.71553c.01593.57394-.18924,1.13206-.5731,1.55904-.67261.77654-1.84739.86079-2.62393.18817-.06714-.05815-.13002-.12104-.18817-.18817-.38622-.42426-.59484-.98058-.58282-1.55418-.01998-.57694.1876-1.13861.57796-1.5639.37026-.41246.90297-.64153,1.45705-.62653.53468-.01046,1.04536.22166,1.38905.63139.37003.43139.56421.9862.54396,1.55418ZM216.76879,79.81267c.0357-.61629-.06376-1.23293-.29141-1.80674-.1022-.24004-.34151-.3925-.60224-.38369-.27684,0-.48568.1797-.67024.53425-.18289.45472-.26731.94304-.2477,1.43276-.04412.67733.11122,1.35274.44683,1.94273.11759.17807.32124.27989.53425.26712.2556.01029.48804-.14729.5731-.38855.18916-.51075.27661-1.05357.25741-1.59789Z"/><path class="cls-1" d="M222.51441,81.78453c0,.03886-.07771.06314-.22827.06314h-1.55904c-.08742,0-.13599,0-.13599-.05828-.00305-.02258.01174-.04371.034-.04857h.21856c.068,0,.10199,0,.10199-.06314s-.11656-.1797-.33998-.48568l-.90337-1.26277-.10199-.14571v1.55418c-.01151.11241.00519.22592.04857.33026.02914.034.13599.05343.31084.06314.10199,0,.15542.02428.15542.05828s-.03886.05828-.11171.05828h-1.73388c-.068,0-.10199-.01943-.10199-.05828,0-.034.07285-.05343.20884-.05828s.22341,0,.25255-.05828c.03959-.0831.05475-.17574.04371-.26712v-3.54548c.00305-.04247-.01093-.08441-.03886-.11656-.08563-.03012-.17668-.0417-.26713-.034-.12142,0-.1797,0-.1797-.05828s.02914-.05343.08742-.05343h1.72417c.04857,0,.07285,0,.07285.05343s-.04857.04371-.15056.04857c-.09942-.00375-.19857.01278-.29141.04857-.02914,0-.04857.09228-.04857.21856v1.62703c.11171-.09228.48568-.48568,1.12192-1.2142.28655-.32055.4274-.51968.4274-.6071s0-.04857-.05828-.05343-.14085,0-.31084,0c-.05828,0-.08742,0-.08742-.05343s.04857-.05828.14571-.05828h1.06364c.05343,0,.08257,0,.08257.05828s-.034.06314-.09713.06314c-.11003-.00161-.2197.01312-.32541.04371-.07558.03454-.14333.08412-.19913.1457-.37235.38207-.76576.81918-1.1802,1.31134.068.09714.26713.35455.58767.76738.22827.2817.54882.69452.97136,1.23363.10877.15731.23062.30516.36426.44197.07298.05326.16242.07906.25255.07285.12628-.00971.17485.00486.17485.03885Z"/><path class="cls-1" d="M226.15702,77.65138c0,.02914-.02914.04371-.08257.04857-.1491-.00702-.29761.02302-.43226.08742-.20619.27864-.36987.58636-.48568.91308-.05828.13113-.14085.32055-.25741.56825-.09528.18028-.17804.36689-.2477.55853-.02911.16016-.04051.32303-.034.48568v1.23363c-.00615.06134.02973.11914.08742.14085.11615.02742.23522.04047.35455.03886.08742,0,.13599,0,.13599.06314s-.03886.04857-.12142.04857h-1.86016c-.068,0-.10199,0-.10199-.04857s.02914-.05343.08742-.05343c.29141,0,.45168-.02914.48568-.07771.03693-.05762.0524-.12639.04371-.19427v-1.45705c-.17475-.43447-.37922-.8564-.61196-1.26277-.11656-.25255-.28655-.56339-.48568-.94222-.07773-.08139-.18948-.12104-.30112-.10685h-.12628c-.08257,0-.12628-.02428-.12628-.07285s.04371-.05343.13113-.05343h1.13164c.09046-.00848.18152-.00848.27198,0h.55368c.07771,0,.12142,0,.12142.04857.00057.01817-.01153.03432-.02914.03885h-.21856c-.22342,0-.33512.04857-.33512.1457-.00121.06837.01203.13623.03886.19913.02914.068.12628.27198.29141.6071l.51482,1.01508c.13276-.22665.31246-.60063.53911-1.12192.1171-.21972.20681-.45297.26713-.69453,0-.09228-.05828-.13599-.17485-.13599s-.27198,0-.27198-.05343.03886-.068.11656-.06314h.99079c.09228.034.14084.05343.14084.09714Z"/><path class="cls-1" d="M230.01819,79.71553c.01593.57394-.18924,1.13206-.5731,1.55904-.67925.77788-1.86049.85784-2.63836.17859-.06349-.05544-.12315-.1151-.17859-.17859-.38622-.42426-.59484-.98058-.58282-1.55418-.01814-.57753.19114-1.1391.58282-1.5639.36987-.41301.90285-.64219,1.45705-.62653.53439-.00906,1.0445.2228,1.38905.63139.37003.43139.56422.9862.54397,1.55418ZM228.93998,79.81267c.0357-.61629-.06376-1.23293-.29141-1.80674-.10329-.23911-.34188-.39112-.60224-.38369-.2817,0-.48568.1797-.67024.53425-.18289.45472-.26731.94304-.2477,1.43276-.04531.67682.10832,1.35212.44197,1.94273.11827.1773.32144.27889.53425.26712.25606.01191.48937-.14627.5731-.38855.19331-.50976.28249-1.05309.26226-1.59789Z"/><path class="cls-1" d="M235.38012,77.65138s0,.02914-.04857.034h-.32055c-.10685,0-.16999.02428-.18456.068-.02071.13032-.02071.26309,0,.3934v3.62319c0,.068,0,.10685-.04371.10685-.3309-.31097-.63174-.65246-.89851-1.01993-.55044-.67995-1.15592-1.45705-1.81645-2.33127v2.98694c0,.08742.02429.14085.07771.16028.09813.03491.20186.05137.30598.04857.13923,0,.21694.00971.23313.02914.00299.00782.00299.01647,0,.02428,0,.034-.02914.05343-.09228.05343h-1.29192c-.05828,0-.09228,0-.09228-.05343s.09228-.04857.27198-.05828.33026-.05343.3594-.10199c.03596-.14439.04745-.29378.034-.44197v-2.52555c.00976-.16175.00976-.32393,0-.48568-.0102-.1561-.08831-.29988-.2137-.3934-.15066-.07495-.31747-.11165-.48568-.10685-.06314,0-.09713-.02428-.09713-.05343s.02914-.05828.08742-.05828h1.3162l2.17586,2.81695v-2.42841c0-.09714,0-.16027-.04857-.18942-.06399-.03428-.13648-.04945-.20884-.04371h-.26227c-.04857,0-.07285-.01457-.07285-.04371,0-.034.034-.04857.10685-.04857h1.12678c.04371-.01457.08257.00486.08257.03885Z"/><path class="cls-1" d="M239.60555,81.77968c.0004.02875-.02022.05349-.04857.05828-.07925.00486-.15873.00486-.23798,0h-1.68046c-.07771,0-.16513,0-.16513-.06314s.11656-.068.34969-.07285c.04351.00593.08762.00593.13113,0,.06314,0,.09713-.034.09713-.07285-.01799-.08746-.04234-.17349-.07285-.25741l-.12628-.40312c-.02914-.08742-.07771-.25255-.16028-.48568h-1.15592c-.034.08257-.10685.26712-.20884.55368l-.13599.39826c-.01713.04679-.02696.09593-.02914.1457,0,.068.04371.11171.13599.13599h.30112c.05828,0,.08742,0,.08742.05343s-.03886.05828-.11171.05828h-1.09764c-.05828,0-.08742,0-.08742-.06314s.068-.03886.19427-.04857.26713-.03886.31084-.09228c.09384-.15677.16729-.32488.21856-.50025l.33998-.90822.74309-2.04958c.03886-.09228.08742-.23313.15542-.42254s.07771-.2137.10199-.2137.068.09714.13599.28655.44197,1.19478,1.08307,2.86552l.2477.65081c.03072.13441.10396.25534.20884.34483.12109.04411.25087.05908.37883.04371.068,0,.09714.01943.09714.05828ZM237.66283,80.32263l-.04371-.11656c-.16513-.48568-.28655-.81109-.3594-1.0005l-.08257-.23798-.03886-.11171c-.07285.1797-.16513.42254-.27198.73338s-.21856.61196-.26713.74795h1.05393l.00972-.01457Z"/><path class="cls-1" d="M243.26759,78.74417c0,.034,0,.04857-.04371.04857s-.08742-.07771-.12627-.23798c-.03528-.23815-.14197-.46-.30598-.63624-.18317-.12684-.40437-.18686-.62653-.16999h-.29141v3.73975c0,.10199.034.16513.08742.19427.13969.04552.28536.07007.43226.07285.04857,0,.068.02428.068.05828s-.02914.06314-.09713.06314h-.87908l-1.04422.02914c-.05828,0-.08742,0-.08742-.04857s0-.03886,0-.04371c.06787-.00584.13612-.00584.20399,0,.22827,0,.34969-.06314.36426-.16513s0-.48568,0-1.25306v-2.6664h-.15542c-.25292-.0217-.50586.04153-.71881.1797-.17391.16973-.27788.39847-.29141.6411-.02914.1797-.068.26712-.11171.26712s-.05343,0-.05343-.07285v-.33998c.034-.40312.05343-.6751.06314-.82566h3.14236c.1019.00609.20408.00609.30598,0,0,.26712.04371.6071.09228,1.01993.068.068.07285.11171.07285.14571Z"/><path class="cls-1" d="M245.3026,81.79425c0,.034-.02914.05343-.08257.05343h-1.78731c-.06314,0-.09228,0-.09228-.05828s0-.02914.034-.034h.23799c.12627-.02428.19913-.06314.21856-.11171.03262-.1597.04405-.323.034-.48568v-3.21521c.00186-.03397.00186-.06802,0-.10199,0-.10199-.102-.15542-.30598-.15542-.1117,0-.16999,0-.16999-.04371v-.04857h1.7776c.05343,0,.08257,0,.08257.04857.00351.02114-.00883.04171-.02914.04857h-.18942c-.12627,0-.20399.034-.23313.08257v3.59405c0,.17485,0,.27684.05828.31084.12403.05305.25876.07633.3934.068.03399.00486.05342.01943.05342.04857Z"/><path class="cls-1" d="M249.59117,79.71553c.0141.57452-.19277,1.13255-.57796,1.55904-.3541.4103-.87141.64318-1.41334.63624-.539.00288-1.05145-.23377-1.39877-.64596-.38755-.42377-.59788-.98001-.58768-1.55418-.01813-.57753.19114-1.1391.58282-1.5639.37026-.41246.90298-.64153,1.45705-.62653.53468-.01046,1.04536.22166,1.38905.63139.3741.43315.57021.99196.54883,1.5639ZM248.5081,79.81267c.0357-.61629-.06376-1.23293-.29141-1.80674-.1022-.24004-.34151-.3925-.60225-.38369-.2817,0-.48568.1797-.66538.53425-.18658.45377-.27274.94255-.25256,1.43276-.04531.67682.10833,1.35212.44197,1.94273.12115.17659.32522.27771.53911.26712.25606.01191.48937-.14627.5731-.38855.18916-.51075.27661-1.05357.25742-1.59789Z"/><path class="cls-1" d="M253.95746,77.65138s0,.02914-.04371.034h-.32541c-.10685,0-.16999.02428-.18456.068-.01497.13071-.01497.26269,0,.3934v3.62319c0,.068,0,.10685-.03886.10685-.3325-.30943-.63348-.65108-.89851-1.01993-.55368-.67995-1.16079-1.45705-1.82131-2.33127v2.98694c0,.08742.02914.14085.08257.16028.09813.03491.20187.05137.30598.04857.07892-.00951.15897.0005.23313.02914.00047.00809.00047.0162,0,.02428,0,.034-.034.05343-.09228.05343h-1.26763c-.06314,0-.09228,0-.09228-.05343s.08742-.04857.26713-.05828.33026-.05343.36426-.10199c.03012-.14527.03993-.29401.02914-.44197v-3.01123c-.0102-.1561-.08831-.29988-.2137-.3934-.15086-.07439-.31753-.11106-.48568-.10685-.068,0-.09713-.02428-.09713-.05343s.02914-.05828.08257-.05828h1.33563l2.16128,2.7781v-2.42841c.00739-.06694-.00988-.13429-.04857-.18942-.06399-.03428-.13648-.04945-.20884-.04371h-.26713c-.04856,0-.07285-.01457-.07285-.04371,0-.034.034-.04857.1117-.04857h1.12679c.03886.01943.05829.04533.05829.07771Z"/><path class="cls-1" d="M258.18289,81.77968c.00299.02789-.0161.05334-.04371.05828-.07926.0047-.15873.0047-.23799,0h-1.68046c-.07285,0-.16513,0-.16513-.06314s.11657-.068.34969-.07285c.04351.00593.08763.00593.13114,0,.06314,0,.09713-.034.09713-.07285-.01799-.08746-.04234-.17349-.07285-.25741l-.13114-.40312c-.0259-.08742-.07933-.24932-.16028-.48568h-1.13649c-.03886.08257-.10685.26712-.20884.55368l-.13599.39826c-.01844.04663-.0299.09573-.034.1457,0,.068.04857.11171.13599.13599h.30598c.05828,0,.08257,0,.08257.05343s-.034.05828-.10685.05828h-1.08793c-.05828,0-.08742,0-.08742-.06314s.06314-.03886.18942-.04857c.11276.00689.2244-.02574.31569-.09228.09272-.1648.16762-.33901.22342-.51968.07771-.20399.18942-.48568.33512-.90823l.74795-2.04958c.034-.09228.08742-.23313.15056-.42254s.08257-.2137.10685-.2137.068.09714.13599.28655.44197,1.19478,1.07821,2.86552l.2477.65081c.03452.13284.10711.2527.20884.34483.12272.04434.25414.05931.38369.04371.0421.01295.06315.03886.06315.07771ZM256.24016,80.32263s0-.05343-.03886-.11656c-.16999-.48568-.28655-.81109-.35941-1.0005-.02429-.05828-.04857-.13599-.08257-.23798l-.03886-.11171c-.07771.1797-.16513.42254-.27198.73338s-.20399.59253-.25741.73338h1.04907Z"/><path class="cls-1" d="M261.63122,80.7986v.19913c-.00829.14559-.00829.29153,0,.43711v.43711c-.52454,0-1.45705-.034-2.8461-.034h-.25741c-.1797,0-.27198,0-.27198-.04857s.02914-.05343.08742-.05343c.13663.01607.27477-.01292.3934-.08257.03886-.034.05343-.13113.05343-.29627v-3.33178c.01-.08729-.00167-.17571-.034-.25741-.05855-.06579-.14576-.09849-.23313-.08742h-.15542c-.04371,0-.068,0-.068-.04857s.02914-.04371.08742-.04371h1.72903c.03886,0,.06314,0,.06314.04857s-.05343.05343-.16028.05343-.24284,0-.27198.05343c-.0384.15884-.05152.32275-.03886.48568v1.45705c0,.30112,0,.97136.02429,2.01072h.26713c.29521.00975.59073-.00324.88395-.03886.23321-.03289.43315-.18331.52939-.39826.06437-.16433.10999-.3354.13599-.50997,0-.06314.02914-.09714.05343-.09714s.02914.034.02914.1457Z"/><path class="cls-1" d="M267.57597,81.79425c0,.04371-.03886.06314-.12142.06314h-2.03015c-.05828,0-.08742,0-.08742-.04857s.02914-.04857.08742-.04857h.20884c.18942,0,.30112-.02914.34484-.10199.01089-.1228.01089-.24632,0-.36912v-3.34635c-.13114.33998-.30598.88394-.51968,1.62703l-.53425,1.87959c-.068.22827-.12142.34483-.16028.34483s-.08742-.05828-.12142-.16999l-.3594-1.18506c-.09228-.2817-.34969-1.07336-.76252-2.37984v3.52605c.0062.03481.02527.06602.05343.08742.09129.06131.20181.08722.31084.07285.15056,0,.22342,0,.22342.068s-.034.04371-.09228.04371h-1.20449c-.08742,0-.13114,0-.13114-.05343s.034-.04857.10685-.04857c.09869.00502.19758.00502.29627,0,.12627,0,.19913-.06314.21856-.14085.01139-.10168.01139-.2043,0-.30598v-2.91409c.0184-.19461-.0014-.39094-.05828-.57796-.03886-.05343-.18456-.08257-.44197-.08257-.06314,0-.09713,0-.09713-.05828s.034-.05828.102-.05343h1.3939c.34969,1.1365.64596,2.08357.89365,2.83153l.83052-2.83638h1.4959c.07771,0,.12142,0,.12142.05343s-.02429.05343-.07285.05343h-.14571c-.1172-.01997-.23771-.003-.34484.04857-.06989.058-.10481.14803-.09228.23798v3.47748c0,.1457.03886.23313.11657.25255.11273.02757.22908.0374.34484.02914.15055-.034.22826-.01457.22826.02428Z"/><path class="cls-1" d="M271.50514,77.63195c0,.034-.068.05343-.20884.05828s-.27684.02914-.31569.08257c-.00846.03511-.00846.07173,0,.10685v2.60811c0,.97136-.48568,1.45705-1.38905,1.45705-.41547.02445-.8206-.13547-1.10735-.43711-.24197-.3361-.35412-.74842-.3157-1.16078v-2.36527c0-.12628,0-.20884-.06314-.23798-.12303-.04459-.25283-.06759-.38369-.068-.04857,0-.068,0-.068-.04857s.034-.04857.1117-.04857h1.71931c.07285,0,.10685,0,.10685.05828s-.06314.05828-.18942.05828-.27684.02914-.29141.09714c-.00477.04358-.00477.08755,0,.13113v2.93352c.00699.21325.08765.41749.22827.57796.15996.15342.37602.23422.59739.22341.23816.01823.46965-.08385.61682-.27198.19256-.35657.27535-.76212.23799-1.16564v-2.27785c.01094-.08143-.02472-.16211-.09228-.20884-.07553-.02995-.15709-.0416-.23799-.034-.14571,0-.21856-.02428-.21856-.07285,0-.034.02914-.04857.08742-.04857h.98109c.13114,0,.19427.01457.19427.05342Z"/><path class="cls-1" d="M274.42409,80.62375c.01015.35274-.13553.69206-.39826.92765-.27735.24737-.63873.37941-1.01022.36912-.35656-.02555-.70628-.11093-1.0345-.25255-.02884-.00589-.05858-.00589-.08742,0-.068,0-.12142.07285-.16028.22341,0,.04371-.02914.068-.04857.068s-.04857-.02914-.04857-.08742c.00396-.09601.0137-.1917.02914-.28655.01903-.12697.02716-.25533.02429-.38369v-.52939c0-.02428,0-.10199.05828-.10199s.07771.08742.1117.26712c.04062.27383.17856.52385.38855.70424.19349.17074.44138.26714.69938.27198.20777.00609.40979-.0688.56339-.20884.14617-.12905.2294-.31499.22827-.50997.00666-.15215-.04752-.30069-.15056-.41283-.22345-.16821-.46253-.31459-.71395-.43711-.35495-.16503-.66732-.40928-.91308-.71395-.14954-.23107-.22573-.50195-.21856-.77709-.00715-.33169.12916-.65033.37398-.87423.26412-.24157.61388-.36749.97136-.34969.22797.00601.45247.05719.66053.15056.05171.02589.10764.04234.16513.04857.06314,0,.102-.05343.12142-.16027,0-.034.02914-.05343.05828-.05343s.05828.02914.05828.08257c.00308.05662.00308.11337,0,.16999-.00419.07765-.00419.15547,0,.23313v.54396c.00327.01602.00327.03254,0,.04857,0,.03885,0,.05343-.04857.05343s-.07771-.06314-.1117-.19427c-.04279-.14088-.10842-.27378-.19427-.3934-.07431-.1146-.17195-.21224-.28654-.28655-.13119-.07599-.28067-.11462-.43226-.11171-.1958-.01012-.38876.05018-.54396.16999-.13598.10954-.21172.27725-.20399.45168-.00114.16868.06739.33036.18942.44683.22239.19297.46892.35623.73338.48568.3175.15853.61301.35771.87908.59253.20153.22255.30636.51608.29141.81594Z"/><path class="cls-1" d="M278.15413,80.75975v1.00051c0,.08742,0,.12628,0,.12142-1.08469-.04857-2.03177-.06314-2.84124-.04371h-.5391c-.07285,0-.10685,0-.10685-.04857s0-.03886.02429-.04371h.18942c.19427,0,.29627-.068.31084-.16513.00542-.05978.00542-.11992,0-.1797v-3.55034c.00199-.05147-.02166-.10059-.06314-.13113-.07184-.03117-.15016-.0445-.22827-.03885-.12627,0-.18942,0-.18942-.05343s.05828-.06314.16999-.06314h3.08408l.05828.67024c.01943.2137.02914.34483.02914.3934,0,.03885,0,.06314-.05828.06314s-.068-.05343-.08257-.16027c-.01481-.2476-.1395-.47561-.33998-.62167-.25907-.14427-.55392-.21166-.84994-.19427h-.58768v1.81645c.287.02762.57658-.00548.84994-.09714.11657-.068.19913-.24284.23799-.52454,0-.15056.05343-.22827.09228-.22827s.05828.03885.05828.11171v1.56875c.00293.03069.00293.06159,0,.09228,0,.04857,0,.07285-.05343.07285s-.04857,0-.05343-.02914c-.02134-.06446-.03439-.13138-.03886-.19913-.00563-.19349-.06445-.38169-.16999-.54396-.14511-.0896-.31636-.12728-.48568-.10685h-.41769v2.069h.3934c.45168,0,.72852,0,.82566-.02914.12645-.01984.24727-.06619.35455-.13599.09298-.06922.16658-.16121.2137-.26712.05934-.17024.10164-.34595.12627-.52454,0-.05828.034-.09228.06314-.09228s.02429.01943.02429.09228Z"/><path class="cls-1" d="M282.25328,77.63195c0,.034-.068.05343-.20884.05828s-.27684.02914-.31084.08257c-.01873.03252-.02876.06932-.02914.10685v2.60811c0,.97136-.48568,1.45705-1.38905,1.45705-.41547.02445-.8206-.13547-1.10735-.43711-.23202-.3383-.33696-.74773-.29627-1.15592v-2.37013c0-.12628,0-.20884-.05828-.23798-.12479-.0443-.25614-.06729-.38855-.068-.04371,0-.068,0-.068-.04857s.03886-.04857.1117-.04857h1.72417c.068,0,.10199.01943.102.05828,0,.03886-.06313.05828-.18942.05828-.1797,0-.27684.02914-.29141.09714-.00241.04368-.00241.08746,0,.13113v2.30213c-.012.21029-.012.4211,0,.63139.00493.21367.08586.41859.22827.57796.15846.15266.37272.23345.59253.22341.23816.01823.46965-.08385.61682-.27198.19451-.35596.27902-.76162.24284-1.16564v-2.171c-.00532-.03542-.00532-.07143,0-.10685.00877-.0811-.02641-.16072-.09228-.20884-.0758-.02894-.15711-.04056-.23799-.034-.1457,0-.21856-.02428-.21856-.07285,0-.034.02914-.04857.08257-.04857h.98593c.12141,0,.19912.01457.19912.05342Z"/><path class="cls-1" d="M287.1101,81.79425c0,.04371-.03886.06314-.12142.06314h-2.03015c-.05828,0-.08742,0-.08742-.04857s.02914-.04857.08742-.04857h.20884c.18456,0,.30112-.02914.33998-.10199.01564-.12254.01564-.24658,0-.36912v-3.34635c-.13114.33998-.30598.88394-.51968,1.62703l-.53425,1.87959c-.068.22827-.12142.34483-.16028.34483s-.08742-.05828-.12142-.16999-.14571-.43226-.3934-1.18506c-.09713-.2817-.35293-1.07498-.76738-2.37984v3.52605c.00404.03559.02359.06759.05343.08742.09129.06131.20181.08722.31084.07285.15056,0,.22342,0,.22342.068s-.034.04371-.09228.04371h-1.20449c-.08742,0-.13114,0-.13114-.05343s.034-.04857.10685-.04857c.09869.00513.19758.00513.29627,0,.12627,0,.19913-.06314.21856-.14085.01139-.10168.01139-.2043,0-.30598v-2.91409c.0184-.19461-.0014-.39094-.05828-.57796-.03886-.05343-.18456-.08257-.44197-.08257-.06314,0-.09713,0-.09713-.05828s.034-.05828.102-.05343h1.3939c.34969,1.1365.64596,2.08357.8888,2.83153l.83537-2.83638h1.49105c.08257,0,.12627,0,.12627.05343s-.02914.05343-.07771.05343h-.14084c-.1172-.01997-.23771-.003-.34484.04857-.06989.058-.10481.14803-.09228.23798v3.47748c0,.1457.03886.23313.11657.25255.11273.02757.22908.0374.34484.02914.19427-.034.27198-.01457.27198.02428Z"/></g></svg>