<?xml version="1.0" encoding="UTF-8"?><svg id="_レイヤー_2" xmlns="http://www.w3.org/2000/svg" xmlns:xlink="http://www.w3.org/1999/xlink" viewBox="0 0 347.31673 214.46149"><defs><style>.cls-1,.cls-2{fill:none;}.cls-3{fill:#fff;}.cls-2{stroke:#fff;stroke-miterlimit:10;stroke-width:1.5px;}.cls-4{clip-path:url(#clippath);}</style><clipPath id="clippath"><rect class="cls-1" x="90.52255" y="10.33101" width="167.27122" height="27.97606"/></clipPath></defs><g id="_レイヤー_2-2"><path class="cls-3" d="M313.37682,53.49022h-51.7985v-11.08315h-87.92017c-.34543,0-.62569-.28026-.62569-.62569s.28026-.62569.62569-.62569h89.17154v11.08315h50.54712c.34543,0,.62569.28026.62569.62569s-.28026.62569-.62569.62569Z"/><path class="cls-3" d="M346.06536,53.49022h-20.30105c-.34543,0-.62569-.28026-.62569-.62569s.28026-.62569.62569-.62569h20.30105c.34543,0,.62569.28026.62569.62569s-.28026.62569-.62569.62569Z"/><path class="cls-3" d="M202.92456,213.83581c-.34543,0-.62569-.28026-.62569-.62569v-6.81943h101.16186v-7.91398h41.97894V1.87706h-83.39452v5.50532h-88.38699c-.34543,0-.62569-.28026-.62569-.62569s.28026-.62569.62569-.62569h87.13561V.62569h85.89727v199.1024h-41.97894v7.91398h-101.16186v5.56805c0,.34543-.28026.62569-.62569.62569Z"/><path class="cls-3" d="M202.92456,214.46149c-.69127,0-1.25138-.5601-1.25138-1.25138v-7.44512h101.16186v-7.91398h41.97894V2.50275h-82.14314v5.50532h-78.67131c-.69127,0-1.25138-.5601-1.25138-1.25138s.5601-1.25138,1.25138-1.25138h76.16856V0h87.14865v200.35378h-41.97894v7.91398h-101.16186v4.94237c0,.69127-.5601,1.25138-1.25138,1.25138Z"/><path class="cls-3" d="M183.99953,20.54546c-.34543,0-.62569-.28026-.62569-.62569V6.7567c0-.34543.28026-.62569.62569-.62569s.62569.28026.62569.62569v13.16307c0,.34543-.28026.62569-.62569.62569Z"/><path class="cls-3" d="M265.03265,19.61222h-4.23887V6.7567c0-.34543.28026-.62569.62569-.62569s.62569.28026.62569.62569v11.60415h2.9875c.34543,0,.62569.28026.62569.62569s-.28026.62569-.62569.62569Z"/><path class="cls-3" d="M278.69024,19.61222h-4.23847c-.34543,0-.62569-.28026-.62569-.62569s.28026-.62569.62569-.62569h2.98709V1.25138c0-.34543.28026-.62569.62569-.62569s.62569.28026.62569.62569v18.36085Z"/><path class="cls-3" d="M295.38789,19.61222h-4.23887c-.34543,0-.62569-.28026-.62569-.62569s.28026-.62569.62569-.62569h2.9875V1.25138c0-.34543.28026-.62569.62569-.62569s.62569.28026.62569.62569v18.36085Z"/><path class="cls-3" d="M281.67774,19.61222h-4.23887V1.25138c0-.34543.28026-.62569.62569-.62569s.62569.28026.62569.62569v17.10947h2.9875c.34543,0,.62569.28026.62569.62569s-.28026.62569-.62569.62569Z"/><path class="cls-3" d="M294.7622,42.40706c-.34543,0-.62569-.28026-.62569-.62569v-22.79484c0-.34543.28026-.62569.62569-.62569s.62569.28026.62569.62569v22.79484c0,.34543-.28026.62569-.62569.62569Z"/><path class="cls-3" d="M294.7622,125.12294c-.34543,0-.62569-.28026-.62569-.62569V52.86453c0-.34543.28026-.62569.62569-.62569s.62569.28026.62569.62569v71.63272c0,.34543-.28026.62569-.62569.62569Z"/><path class="cls-3" d="M294.7622,167.62492c-.34543,0-.62569-.28026-.62569-.62569v-35.57256c0-.34543.28026-.62569.62569-.62569s.62569.28026.62569.62569v35.57256c0,.34543-.28026.62569-.62569.62569Z"/><path class="cls-3" d="M294.7622,207.64207c-.34543,0-.62569-.28026-.62569-.62569v-27.77468c0-.34543.28026-.62569.62569-.62569s.62569.28026.62569.62569v27.77468c0,.34543-.28026.62569-.62569.62569Z"/><path class="cls-3" d="M304.08642,199.72809h-9.32422c-.34543,0-.62569-.28026-.62569-.62569s.28026-.62569.62569-.62569h9.32422c.34543,0,.62569.28026.62569.62569s-.28026.62569-.62569.62569Z"/><path class="cls-3" d="M314.17115,148.45263h-36.95836c-.34543,0-.62569-.28026-.62569-.62569s.28026-.62569.62569-.62569h36.95836c.34543,0,.62569.28026.62569.62569s-.28026.62569-.62569.62569Z"/><path class="cls-3" d="M346.06536,148.45263h-19.8827c-.34543,0-.62569-.28026-.62569-.62569s.28026-.62569.62569-.62569h19.8827c.34543,0,.62569.28026.62569.62569s-.28026.62569-.62569.62569Z"/><path class="cls-3" d="M204.22033,160.92606c-.34543,0-.62569-.28026-.62569-.62569v-13.09912h63.45479c.34543,0,.62569.28026.62569.62569s-.28026.62569-.62569.62569h-62.20341v11.84774c0,.34543-.28026.62569-.62569.62569Z"/><path class="cls-3" d="M204.22033,207.64207c-.34543,0-.62569-.28026-.62569-.62569v-29.16089c0-.34543.28026-.62569.62569-.62569s.62569.28026.62569.62569v29.16089c0,.34543-.28026.62569-.62569.62569Z"/><path class="cls-3" d="M199.75823,140.60302c-.34543,0-.62569-.28026-.62569-.62569v-69.86239h-26.04508c-.34543,0-.62569-.28026-.62569-.62569s.28026-.62569.62569-.62569h27.29645v71.11376c0,.34543-.28026.62569-.62569.62569Z"/><path class="cls-3" d="M294.7622,121.52605h-95.00396c-.34543,0-.62569-.28026-.62569-.62569s.28026-.62569.62569-.62569h95.00396c.34543,0,.62569.28026.62569.62569s-.28026.62569-.62569.62569Z"/><path class="cls-3" d="M216.85345,136.52953h-17.09521c-.34543,0-.62569-.28026-.62569-.62569s.28026-.62569.62569-.62569h17.09521c.34543,0,.62569.28026.62569.62569s-.28026.62569-.62569.62569Z"/><path class="cls-3" d="M216.85345,140.60302c-.34543,0-.62569-.28026-.62569-.62569v-19.07697c0-.34543.28026-.62569.62569-.62569s.62569.28026.62569.62569v19.07697c0,.34543-.28026.62569-.62569.62569Z"/><path class="cls-3" d="M216.85345,148.45263c-.34543,0-.62569-.28026-.62569-.62569v-2.22209c0-.34543.28026-.62569.62569-.62569s.62569.28026.62569.62569v2.22209c0,.34543-.28026.62569-.62569.62569Z"/><path class="cls-3" d="M265.03265,129.97773c-.34543,0-.62569-.28026-.62569-.62569v-8.45168c0-.34543.28026-.62569.62569-.62569s.62569.28026.62569.62569v8.45168c0,.34543-.28026.62569-.62569.62569Z"/><path class="cls-3" d="M265.03265,148.45263c-.34543,0-.62569-.28026-.62569-.62569v-7.84961c0-.34543.28026-.62569.62569-.62569s.62569.28026.62569.62569v7.84961c0,.34543-.28026.62569-.62569.62569Z"/><path class="cls-3" d="M286.97002,141.69634h-14.64338v-14.64338h14.64338v14.64338ZM273.57801,140.44496h12.14063v-12.14063h-12.14063v12.14063Z"/><path class="cls-3" d="M294.7622,133.2797h-8.41787c-.23056,0-.41713-.18657-.41713-.41713s.18657-.41713.41713-.41713h8.41787c.23056,0,.41713.18657.41713.41713s-.18657.41713-.41713.41713Z"/><path class="cls-3" d="M294.7622,135.5523h-8.41787c-.23056,0-.41713-.18657-.41713-.41713s.18657-.41713.41713-.41713h8.41787c.23056,0,.41713.18657.41713.41713s-.18657.41713-.41713.41713Z"/><path class="cls-3" d="M294.7622,137.8249h-8.41787c-.23056,0-.41713-.18657-.41713-.41713s.18657-.41713.41713-.41713h8.41787c.23056,0,.41713.18657.41713.41713s-.18657.41713-.41713.41713Z"/><path class="cls-3" d="M294.7622,140.0975h-8.41787c-.23056,0-.41713-.18657-.41713-.41713s.18657-.41713.41713-.41713h8.41787c.23056,0,.41713.18657.41713.41713s-.18657.41713-.41713.41713Z"/><path class="cls-3" d="M285.04978,148.24407c-.23056,0-.41713-.18657-.41713-.41713v-6.75629c0-.23056.18657-.41713.41713-.41713s.41713.18657.41713.41713v6.75629c0,.23056-.18657.41713-.41713.41713Z"/><path class="cls-3" d="M282.99918,148.24407c-.23056,0-.41713-.18657-.41713-.41713v-6.75629c0-.23056.18657-.41713.41713-.41713s.41713.18657.41713.41713v6.75629c0,.23056-.18657.41713-.41713.41713Z"/><path class="cls-3" d="M280.94818,148.24407c-.23056,0-.41713-.18657-.41713-.41713v-6.75629c0-.23056.18657-.41713.41713-.41713s.41713.18657.41713.41713v6.75629c0,.23056-.18657.41713-.41713.41713Z"/><path class="cls-3" d="M278.89758,148.24407c-.23056,0-.41713-.18657-.41713-.41713v-6.75629c0-.23056.18657-.41713.41713-.41713s.41713.18657.41713.41713v6.75629c0,.23056-.18657.41713-.41713.41713Z"/><path class="cls-3" d="M85.7384,53.49022h-51.7989c-.34543,0-.62569-.28026-.62569-.62569s.28026-.62569.62569-.62569h50.54753v-11.08315h89.17113c.34543,0,.62569.28026.62569.62569s-.28026.62569-.62569.62569h-87.91976v11.08315Z"/><path class="cls-3" d="M21.55243,53.49022H1.25138c-.34543,0-.62569-.28026-.62569-.62569s.28026-.62569.62569-.62569h20.30105c.34543,0,.62569.28026.62569.62569s-.28026.62569-.62569.62569Z"/><path class="cls-3" d="M144.39218,213.83581c-.34543,0-.62569-.28026-.62569-.62569v-5.56805H42.60422v-7.91398H.62569V.62569h85.89686v5.50532h87.13561c.34543,0,.62569.28026.62569.62569s-.28026.62569-.62569.62569h-88.38699V1.87706H1.87706v196.59965h41.97853v7.91398h101.16227v6.81943c0,.34543-.28026.62569-.62569.62569Z"/><path class="cls-3" d="M144.39218,214.46149c-.69127,0-1.25138-.5601-1.25138-1.25138v-4.94237H41.97853v-7.91398H0V0h87.14824v5.50532h76.16856c.69127,0,1.25138.5601,1.25138,1.25138s-.5601,1.25138-1.25138,1.25138h-78.67131V2.50275H2.50275v195.34827h41.97853v7.91398h101.16227v7.44512c0,.69127-.5601,1.25138-1.25138,1.25138Z"/><path class="cls-3" d="M163.31679,20.54546c-.34543,0-.62569-.28026-.62569-.62569V6.7567c0-.34543.28026-.62569.62569-.62569s.62569.28026.62569.62569v13.16307c0,.34543-.28026.62569-.62569.62569Z"/><path class="cls-3" d="M86.52255,19.61222h-4.23847c-.34543,0-.62569-.28026-.62569-.62569s.28026-.62569.62569-.62569h2.98709V6.7567c0-.34543.28026-.62569.62569-.62569s.62569.28026.62569.62569v12.85553Z"/><path class="cls-3" d="M72.86495,19.61222h-4.23887V1.25138c0-.34543.28026-.62569.62569-.62569s.62569.28026.62569.62569v17.10947h2.9875c.34543,0,.62569.28026.62569.62569s-.28026.62569-.62569.62569Z"/><path class="cls-3" d="M56.16731,19.61222h-4.23847V1.25138c0-.34543.28026-.62569.62569-.62569s.62569.28026.62569.62569v17.10947h2.98709c.34543,0,.62569.28026.62569.62569s-.28026.62569-.62569.62569Z"/><path class="cls-3" d="M69.87746,19.61222h-4.23847c-.34543,0-.62569-.28026-.62569-.62569s.28026-.62569.62569-.62569h2.98709V1.25138c0-.34543.28026-.62569.62569-.62569s.62569.28026.62569.62569v18.36085Z"/><path class="cls-3" d="M52.55454,42.40706c-.34543,0-.62569-.28026-.62569-.62569v-22.79484c0-.34543.28026-.62569.62569-.62569s.62569.28026.62569.62569v22.79484c0,.34543-.28026.62569-.62569.62569Z"/><path class="cls-3" d="M52.55454,125.12294c-.34543,0-.62569-.28026-.62569-.62569V52.86453c0-.34543.28026-.62569.62569-.62569s.62569.28026.62569.62569v71.63272c0,.34543-.28026.62569-.62569.62569Z"/><path class="cls-3" d="M52.55454,167.62492c-.34543,0-.62569-.28026-.62569-.62569v-35.57256c0-.34543.28026-.62569.62569-.62569s.62569.28026.62569.62569v35.57256c0,.34543-.28026.62569-.62569.62569Z"/><path class="cls-3" d="M52.55454,207.64207c-.34543,0-.62569-.28026-.62569-.62569v-27.77468c0-.34543.28026-.62569.62569-.62569s.62569.28026.62569.62569v27.77468c0,.34543-.28026.62569-.62569.62569Z"/><path class="cls-3" d="M52.55454,199.72809h-9.32463c-.34543,0-.62569-.28026-.62569-.62569s.28026-.62569.62569-.62569h9.32463c.34543,0,.62569.28026.62569.62569s-.28026.62569-.62569.62569Z"/><path class="cls-3" d="M70.10394,148.45263h-36.95836c-.34543,0-.62569-.28026-.62569-.62569s.28026-.62569.62569-.62569h36.95836c.34543,0,.62569.28026.62569.62569s-.28026.62569-.62569.62569Z"/><path class="cls-3" d="M21.13408,148.45263H1.25138c-.34543,0-.62569-.28026-.62569-.62569s.28026-.62569.62569-.62569h19.8827c.34543,0,.62569.28026.62569.62569s-.28026.62569-.62569.62569Z"/><path class="cls-3" d="M143.0964,160.92606c-.34543,0-.62569-.28026-.62569-.62569v-11.84774h-62.20341c-.34543,0-.62569-.28026-.62569-.62569s.28026-.62569.62569-.62569h63.45479v13.09912c0,.34543-.28026.62569-.62569.62569Z"/><path class="cls-3" d="M143.0964,207.64207c-.34543,0-.62569-.28026-.62569-.62569v-29.16089c0-.34543.28026-.62569.62569-.62569s.62569.28026.62569.62569v29.16089c0,.34543-.28026.62569-.62569.62569Z"/><path class="cls-3" d="M147.5585,140.60302c-.34543,0-.62569-.28026-.62569-.62569v-71.11376h27.29645c.34543,0,.62569.28026.62569.62569s-.28026.62569-.62569.62569h-26.04508v69.86239c0,.34543-.28026.62569-.62569.62569Z"/><path class="cls-3" d="M147.5585,121.52605H52.55454c-.34543,0-.62569-.28026-.62569-.62569s.28026-.62569.62569-.62569h95.00396c.34543,0,.62569.28026.62569.62569s-.28026.62569-.62569.62569Z"/><path class="cls-3" d="M147.5585,136.52953h-17.09562c-.34543,0-.62569-.28026-.62569-.62569s.28026-.62569.62569-.62569h17.09562c.34543,0,.62569.28026.62569.62569s-.28026.62569-.62569.62569Z"/><path class="cls-3" d="M130.46288,140.60302c-.34543,0-.62569-.28026-.62569-.62569v-19.07697c0-.34543.28026-.62569.62569-.62569s.62569.28026.62569.62569v19.07697c0,.34543-.28026.62569-.62569.62569Z"/><path class="cls-3" d="M130.46288,148.45263c-.34543,0-.62569-.28026-.62569-.62569v-2.22209c0-.34543.28026-.62569.62569-.62569s.62569.28026.62569.62569v2.22209c0,.34543-.28026.62569-.62569.62569Z"/><path class="cls-3" d="M82.28409,129.97773c-.34543,0-.62569-.28026-.62569-.62569v-8.45168c0-.34543.28026-.62569.62569-.62569s.62569.28026.62569.62569v8.45168c0,.34543-.28026.62569-.62569.62569Z"/><path class="cls-3" d="M82.28409,148.45263c-.34543,0-.62569-.28026-.62569-.62569v-7.84961c0-.34543.28026-.62569.62569-.62569s.62569.28026.62569.62569v7.84961c0,.34543-.28026.62569-.62569.62569Z"/><path class="cls-3" d="M74.99009,141.69634h-14.64338v-14.64338h14.64338v14.64338ZM61.59809,140.44496h12.14063v-12.14063h-12.14063v12.14063Z"/><path class="cls-3" d="M60.9724,133.2797h-8.41787c-.23056,0-.41713-.18657-.41713-.41713s.18657-.41713.41713-.41713h8.41787c.23056,0,.41713.18657.41713.41713s-.18657.41713-.41713.41713Z"/><path class="cls-3" d="M60.9724,135.5523h-8.41787c-.23056,0-.41713-.18657-.41713-.41713s.18657-.41713.41713-.41713h8.41787c.23056,0,.41713.18657.41713.41713s-.18657.41713-.41713.41713Z"/><path class="cls-3" d="M60.9724,137.8249h-8.41787c-.23056,0-.41713-.18657-.41713-.41713s.18657-.41713.41713-.41713h8.41787c.23056,0,.41713.18657.41713.41713s-.18657.41713-.41713.41713Z"/><path class="cls-3" d="M60.9724,140.0975h-8.41787c-.23056,0-.41713-.18657-.41713-.41713s.18657-.41713.41713-.41713h8.41787c.23056,0,.41713.18657.41713.41713s-.18657.41713-.41713.41713Z"/><path class="cls-3" d="M62.26696,148.24407c-.23056,0-.41713-.18657-.41713-.41713v-6.75629c0-.23056.18657-.41713.41713-.41713s.41713.18657.41713.41713v6.75629c0,.23056-.18657.41713-.41713.41713Z"/><path class="cls-3" d="M64.31755,148.24407c-.23056,0-.41713-.18657-.41713-.41713v-6.75629c0-.23056.18657-.41713.41713-.41713s.41713.18657.41713.41713v6.75629c0,.23056-.18657.41713-.41713.41713Z"/><path class="cls-3" d="M66.36815,148.24407c-.23056,0-.41713-.18657-.41713-.41713v-6.75629c0-.23056.18657-.41713.41713-.41713s.41713.18657.41713.41713v6.75629c0,.23056-.18657.41713-.41713.41713Z"/><path class="cls-3" d="M68.41874,148.24407c-.23056,0-.41713-.18657-.41713-.41713v-6.75629c0-.23056.18657-.41713.41713-.41713s.41713.18657.41713.41713v6.75629c0,.23056-.18657.41713-.41713.41713Z"/><g class="cls-4"><line class="cls-2" x1="169.69764" y1="-163.13477" x2="6.00854" y2=".55433"/><line class="cls-2" x1="172.50934" y1="-160.32306" x2="8.82025" y2="3.36603"/><line class="cls-2" x1="175.32105" y1="-157.51136" x2="11.63195" y2="6.17774"/><line class="cls-2" x1="178.13275" y1="-154.69965" x2="14.44366" y2="8.98944"/><line class="cls-2" x1="180.94446" y1="-151.88795" x2="17.25536" y2="11.80115"/><line class="cls-2" x1="183.75616" y1="-149.07624" x2="20.06707" y2="14.61285"/><line class="cls-2" x1="186.56787" y1="-146.26454" x2="22.87877" y2="17.42456"/><line class="cls-2" x1="189.37957" y1="-143.45283" x2="25.69048" y2="20.23626"/><line class="cls-2" x1="192.19128" y1="-140.64113" x2="28.50218" y2="23.04797"/><line class="cls-2" x1="195.00298" y1="-137.82942" x2="31.31389" y2="25.85967"/><line class="cls-2" x1="197.81469" y1="-135.01772" x2="34.12559" y2="28.67138"/><line class="cls-2" x1="200.62639" y1="-132.20601" x2="36.9373" y2="31.48308"/><line class="cls-2" x1="203.4381" y1="-129.39431" x2="39.749" y2="34.29479"/><line class="cls-2" x1="206.2498" y1="-126.5826" x2="42.56071" y2="37.10649"/><line class="cls-2" x1="209.06151" y1="-123.7709" x2="45.37241" y2="39.9182"/><line class="cls-2" x1="211.87321" y1="-120.95919" x2="48.18412" y2="42.7299"/><line class="cls-2" x1="214.68492" y1="-118.14749" x2="50.99582" y2="45.54161"/><line class="cls-2" x1="217.49662" y1="-115.33578" x2="53.80753" y2="48.35331"/><line class="cls-2" x1="220.30833" y1="-112.52408" x2="56.61923" y2="51.16502"/><line class="cls-2" x1="223.12003" y1="-109.71237" x2="59.43094" y2="53.97672"/><line class="cls-2" x1="225.93174" y1="-106.90067" x2="62.24264" y2="56.78843"/><line class="cls-2" x1="228.74344" y1="-104.08896" x2="65.05435" y2="59.60013"/><line class="cls-2" x1="231.55515" y1="-101.27726" x2="67.86606" y2="62.41184"/><line class="cls-2" x1="234.36685" y1="-98.46555" x2="70.67776" y2="65.22354"/><line class="cls-2" x1="237.17856" y1="-95.65385" x2="73.48947" y2="68.03525"/><line class="cls-2" x1="239.99027" y1="-92.84214" x2="76.30117" y2="70.84695"/><line class="cls-2" x1="242.80197" y1="-90.03043" x2="79.11288" y2="73.65866"/><line class="cls-2" x1="245.61368" y1="-87.21873" x2="81.92458" y2="76.47037"/><line class="cls-2" x1="248.42538" y1="-84.40702" x2="84.73629" y2="79.28207"/><line class="cls-2" x1="251.23709" y1="-81.59532" x2="87.54799" y2="82.09378"/><line class="cls-2" x1="254.04879" y1="-78.78361" x2="90.3597" y2="84.90548"/><line class="cls-2" x1="256.8605" y1="-75.97191" x2="93.1714" y2="87.71719"/><line class="cls-2" x1="259.6722" y1="-73.1602" x2="95.98311" y2="90.52889"/><line class="cls-2" x1="262.48391" y1="-70.3485" x2="98.79481" y2="93.3406"/><line class="cls-2" x1="265.29561" y1="-67.53679" x2="101.60652" y2="96.1523"/><line class="cls-2" x1="268.10732" y1="-64.72509" x2="104.41822" y2="98.96401"/><line class="cls-2" x1="270.91902" y1="-61.91338" x2="107.22993" y2="101.77571"/><line class="cls-2" x1="273.73073" y1="-59.10168" x2="110.04163" y2="104.58742"/><line class="cls-2" x1="276.54243" y1="-56.28997" x2="112.85334" y2="107.39912"/><line class="cls-2" x1="279.35414" y1="-53.47827" x2="115.66504" y2="110.21083"/><line class="cls-2" x1="282.16584" y1="-50.66656" x2="118.47675" y2="113.02253"/><line class="cls-2" x1="284.97755" y1="-47.85486" x2="121.28845" y2="115.83424"/><line class="cls-2" x1="287.78925" y1="-45.04315" x2="124.10016" y2="118.64594"/><line class="cls-2" x1="290.60096" y1="-42.23145" x2="126.91186" y2="121.45765"/><line class="cls-2" x1="293.41266" y1="-39.41974" x2="129.72357" y2="124.26935"/><line class="cls-2" x1="296.22437" y1="-36.60804" x2="132.53527" y2="127.08106"/><line class="cls-2" x1="299.03607" y1="-33.79633" x2="135.34698" y2="129.89276"/><line class="cls-2" x1="301.84778" y1="-30.98463" x2="138.15868" y2="132.70447"/><line class="cls-2" x1="304.65948" y1="-28.17292" x2="140.97039" y2="135.51617"/><line class="cls-2" x1="307.47119" y1="-25.36122" x2="143.78209" y2="138.32788"/><line class="cls-2" x1="310.28289" y1="-22.54951" x2="146.5938" y2="141.13958"/><line class="cls-2" x1="313.0946" y1="-19.73781" x2="149.4055" y2="143.95129"/><line class="cls-2" x1="315.9063" y1="-16.9261" x2="152.21721" y2="146.76299"/><line class="cls-2" x1="318.71801" y1="-14.1144" x2="155.02891" y2="149.5747"/></g></g></svg>