<?xml version="1.0" encoding="UTF-8"?><svg id="_レイヤー_2" xmlns="http://www.w3.org/2000/svg" xmlns:xlink="http://www.w3.org/1999/xlink" viewBox="0 0 347.31673 214.46149"><defs><style>.cls-1,.cls-2{fill:none;}.cls-3{fill:#fff;}.cls-2{stroke:#fff;stroke-miterlimit:10;stroke-width:1.5px;}.cls-4{clip-path:url(#clippath);}</style><clipPath id="clippath"><rect class="cls-1" x="299.07932" y="5.41848" width="42.54424" height="43.44605"/></clipPath></defs><g id="_レイヤー_2-2"><path class="cls-3" d="M313.37682,53.49022h-51.7985v-11.08315h-87.92017c-.34543,0-.62569-.28026-.62569-.62569s.28026-.62569.62569-.62569h89.17154v11.08315h50.54712c.34543,0,.62569.28026.62569.62569s-.28026.62569-.62569.62569Z"/><path class="cls-3" d="M346.06536,53.49022h-20.30105c-.34543,0-.62569-.28026-.62569-.62569s.28026-.62569.62569-.62569h20.30105c.34543,0,.62569.28026.62569.62569s-.28026.62569-.62569.62569Z"/><path class="cls-3" d="M202.92456,213.83581c-.34543,0-.62569-.28026-.62569-.62569v-6.81943h101.16186v-7.91398h41.97894V1.87706h-83.39452v5.50532h-88.38699c-.34543,0-.62569-.28026-.62569-.62569s.28026-.62569.62569-.62569h87.13561V.62569h85.89727v199.1024h-41.97894v7.91398h-101.16186v5.56805c0,.34543-.28026.62569-.62569.62569Z"/><path class="cls-3" d="M202.92456,214.46149c-.69127,0-1.25138-.5601-1.25138-1.25138v-7.44512h101.16186v-7.91398h41.97894V2.50275h-82.14314v5.50532h-78.67131c-.69127,0-1.25138-.5601-1.25138-1.25138s.5601-1.25138,1.25138-1.25138h76.16856V0h87.14865v200.35378h-41.97894v7.91398h-101.16186v4.94237c0,.69127-.5601,1.25138-1.25138,1.25138Z"/><path class="cls-3" d="M183.99953,20.54546c-.34543,0-.62569-.28026-.62569-.62569V6.7567c0-.34543.28026-.62569.62569-.62569s.62569.28026.62569.62569v13.16307c0,.34543-.28026.62569-.62569.62569Z"/><path class="cls-3" d="M265.03265,19.61222h-4.23887V6.7567c0-.34543.28026-.62569.62569-.62569s.62569.28026.62569.62569v11.60415h2.9875c.34543,0,.62569.28026.62569.62569s-.28026.62569-.62569.62569Z"/><path class="cls-3" d="M278.69024,19.61222h-4.23847c-.34543,0-.62569-.28026-.62569-.62569s.28026-.62569.62569-.62569h2.98709V1.25138c0-.34543.28026-.62569.62569-.62569s.62569.28026.62569.62569v18.36085Z"/><path class="cls-3" d="M295.38789,19.61222h-4.23887c-.34543,0-.62569-.28026-.62569-.62569s.28026-.62569.62569-.62569h2.9875V1.25138c0-.34543.28026-.62569.62569-.62569s.62569.28026.62569.62569v18.36085Z"/><path class="cls-3" d="M281.67774,19.61222h-4.23887V1.25138c0-.34543.28026-.62569.62569-.62569s.62569.28026.62569.62569v17.10947h2.9875c.34543,0,.62569.28026.62569.62569s-.28026.62569-.62569.62569Z"/><path class="cls-3" d="M294.7622,42.40706c-.34543,0-.62569-.28026-.62569-.62569v-22.79484c0-.34543.28026-.62569.62569-.62569s.62569.28026.62569.62569v22.79484c0,.34543-.28026.62569-.62569.62569Z"/><path class="cls-3" d="M294.7622,125.12294c-.34543,0-.62569-.28026-.62569-.62569V52.86453c0-.34543.28026-.62569.62569-.62569s.62569.28026.62569.62569v71.63272c0,.34543-.28026.62569-.62569.62569Z"/><path class="cls-3" d="M294.7622,167.62492c-.34543,0-.62569-.28026-.62569-.62569v-35.57256c0-.34543.28026-.62569.62569-.62569s.62569.28026.62569.62569v35.57256c0,.34543-.28026.62569-.62569.62569Z"/><path class="cls-3" d="M294.7622,207.64207c-.34543,0-.62569-.28026-.62569-.62569v-27.77468c0-.34543.28026-.62569.62569-.62569s.62569.28026.62569.62569v27.77468c0,.34543-.28026.62569-.62569.62569Z"/><path class="cls-3" d="M304.08642,199.72809h-9.32422c-.34543,0-.62569-.28026-.62569-.62569s.28026-.62569.62569-.62569h9.32422c.34543,0,.62569.28026.62569.62569s-.28026.62569-.62569.62569Z"/><path class="cls-3" d="M314.17115,148.45263h-36.95836c-.34543,0-.62569-.28026-.62569-.62569s.28026-.62569.62569-.62569h36.95836c.34543,0,.62569.28026.62569.62569s-.28026.62569-.62569.62569Z"/><path class="cls-3" d="M346.06536,148.45263h-19.8827c-.34543,0-.62569-.28026-.62569-.62569s.28026-.62569.62569-.62569h19.8827c.34543,0,.62569.28026.62569.62569s-.28026.62569-.62569.62569Z"/><path class="cls-3" d="M204.22033,160.92606c-.34543,0-.62569-.28026-.62569-.62569v-13.09912h63.45479c.34543,0,.62569.28026.62569.62569s-.28026.62569-.62569.62569h-62.20341v11.84774c0,.34543-.28026.62569-.62569.62569Z"/><path class="cls-3" d="M204.22033,207.64207c-.34543,0-.62569-.28026-.62569-.62569v-29.16089c0-.34543.28026-.62569.62569-.62569s.62569.28026.62569.62569v29.16089c0,.34543-.28026.62569-.62569.62569Z"/><path class="cls-3" d="M199.75823,140.60302c-.34543,0-.62569-.28026-.62569-.62569v-69.86239h-26.04508c-.34543,0-.62569-.28026-.62569-.62569s.28026-.62569.62569-.62569h27.29645v71.11376c0,.34543-.28026.62569-.62569.62569Z"/><path class="cls-3" d="M294.7622,121.52605h-95.00396c-.34543,0-.62569-.28026-.62569-.62569s.28026-.62569.62569-.62569h95.00396c.34543,0,.62569.28026.62569.62569s-.28026.62569-.62569.62569Z"/><path class="cls-3" d="M216.85345,136.52953h-17.09521c-.34543,0-.62569-.28026-.62569-.62569s.28026-.62569.62569-.62569h17.09521c.34543,0,.62569.28026.62569.62569s-.28026.62569-.62569.62569Z"/><path class="cls-3" d="M216.85345,140.60302c-.34543,0-.62569-.28026-.62569-.62569v-19.07697c0-.34543.28026-.62569.62569-.62569s.62569.28026.62569.62569v19.07697c0,.34543-.28026.62569-.62569.62569Z"/><path class="cls-3" d="M216.85345,148.45263c-.34543,0-.62569-.28026-.62569-.62569v-2.22209c0-.34543.28026-.62569.62569-.62569s.62569.28026.62569.62569v2.22209c0,.34543-.28026.62569-.62569.62569Z"/><path class="cls-3" d="M265.03265,129.97773c-.34543,0-.62569-.28026-.62569-.62569v-8.45168c0-.34543.28026-.62569.62569-.62569s.62569.28026.62569.62569v8.45168c0,.34543-.28026.62569-.62569.62569Z"/><path class="cls-3" d="M265.03265,148.45263c-.34543,0-.62569-.28026-.62569-.62569v-7.84961c0-.34543.28026-.62569.62569-.62569s.62569.28026.62569.62569v7.84961c0,.34543-.28026.62569-.62569.62569Z"/><path class="cls-3" d="M286.97002,141.69634h-14.64338v-14.64338h14.64338v14.64338ZM273.57801,140.44496h12.14063v-12.14063h-12.14063v12.14063Z"/><path class="cls-3" d="M294.7622,133.2797h-8.41787c-.23056,0-.41713-.18657-.41713-.41713s.18657-.41713.41713-.41713h8.41787c.23056,0,.41713.18657.41713.41713s-.18657.41713-.41713.41713Z"/><path class="cls-3" d="M294.7622,135.5523h-8.41787c-.23056,0-.41713-.18657-.41713-.41713s.18657-.41713.41713-.41713h8.41787c.23056,0,.41713.18657.41713.41713s-.18657.41713-.41713.41713Z"/><path class="cls-3" d="M294.7622,137.8249h-8.41787c-.23056,0-.41713-.18657-.41713-.41713s.18657-.41713.41713-.41713h8.41787c.23056,0,.41713.18657.41713.41713s-.18657.41713-.41713.41713Z"/><path class="cls-3" d="M294.7622,140.0975h-8.41787c-.23056,0-.41713-.18657-.41713-.41713s.18657-.41713.41713-.41713h8.41787c.23056,0,.41713.18657.41713.41713s-.18657.41713-.41713.41713Z"/><path class="cls-3" d="M285.04978,148.24407c-.23056,0-.41713-.18657-.41713-.41713v-6.75629c0-.23056.18657-.41713.41713-.41713s.41713.18657.41713.41713v6.75629c0,.23056-.18657.41713-.41713.41713Z"/><path class="cls-3" d="M282.99918,148.24407c-.23056,0-.41713-.18657-.41713-.41713v-6.75629c0-.23056.18657-.41713.41713-.41713s.41713.18657.41713.41713v6.75629c0,.23056-.18657.41713-.41713.41713Z"/><path class="cls-3" d="M280.94818,148.24407c-.23056,0-.41713-.18657-.41713-.41713v-6.75629c0-.23056.18657-.41713.41713-.41713s.41713.18657.41713.41713v6.75629c0,.23056-.18657.41713-.41713.41713Z"/><path class="cls-3" d="M278.89758,148.24407c-.23056,0-.41713-.18657-.41713-.41713v-6.75629c0-.23056.18657-.41713.41713-.41713s.41713.18657.41713.41713v6.75629c0,.23056-.18657.41713-.41713.41713Z"/><path class="cls-3" d="M85.7384,53.49022h-51.7989c-.34543,0-.62569-.28026-.62569-.62569s.28026-.62569.62569-.62569h50.54753v-11.08315h89.17113c.34543,0,.62569.28026.62569.62569s-.28026.62569-.62569.62569h-87.91976v11.08315Z"/><path class="cls-3" d="M21.55243,53.49022H1.25138c-.34543,0-.62569-.28026-.62569-.62569s.28026-.62569.62569-.62569h20.30105c.34543,0,.62569.28026.62569.62569s-.28026.62569-.62569.62569Z"/><path class="cls-3" d="M144.39218,213.83581c-.34543,0-.62569-.28026-.62569-.62569v-5.56805H42.60422v-7.91398H.62569V.62569h85.89686v5.50532h87.13561c.34543,0,.62569.28026.62569.62569s-.28026.62569-.62569.62569h-88.38699V1.87706H1.87706v196.59965h41.97853v7.91398h101.16227v6.81943c0,.34543-.28026.62569-.62569.62569Z"/><path class="cls-3" d="M144.39218,214.46149c-.69127,0-1.25138-.5601-1.25138-1.25138v-4.94237H41.97853v-7.91398H0V0h87.14824v5.50532h76.16856c.69127,0,1.25138.5601,1.25138,1.25138s-.5601,1.25138-1.25138,1.25138h-78.67131V2.50275H2.50275v195.34827h41.97853v7.91398h101.16227v7.44512c0,.69127-.5601,1.25138-1.25138,1.25138Z"/><path class="cls-3" d="M163.31679,20.54546c-.34543,0-.62569-.28026-.62569-.62569V6.7567c0-.34543.28026-.62569.62569-.62569s.62569.28026.62569.62569v13.16307c0,.34543-.28026.62569-.62569.62569Z"/><path class="cls-3" d="M86.52255,19.61222h-4.23847c-.34543,0-.62569-.28026-.62569-.62569s.28026-.62569.62569-.62569h2.98709V6.7567c0-.34543.28026-.62569.62569-.62569s.62569.28026.62569.62569v12.85553Z"/><path class="cls-3" d="M72.86495,19.61222h-4.23887V1.25138c0-.34543.28026-.62569.62569-.62569s.62569.28026.62569.62569v17.10947h2.9875c.34543,0,.62569.28026.62569.62569s-.28026.62569-.62569.62569Z"/><path class="cls-3" d="M56.16731,19.61222h-4.23847V1.25138c0-.34543.28026-.62569.62569-.62569s.62569.28026.62569.62569v17.10947h2.98709c.34543,0,.62569.28026.62569.62569s-.28026.62569-.62569.62569Z"/><path class="cls-3" d="M69.87746,19.61222h-4.23847c-.34543,0-.62569-.28026-.62569-.62569s.28026-.62569.62569-.62569h2.98709V1.25138c0-.34543.28026-.62569.62569-.62569s.62569.28026.62569.62569v18.36085Z"/><path class="cls-3" d="M52.55454,42.40706c-.34543,0-.62569-.28026-.62569-.62569v-22.79484c0-.34543.28026-.62569.62569-.62569s.62569.28026.62569.62569v22.79484c0,.34543-.28026.62569-.62569.62569Z"/><path class="cls-3" d="M52.55454,125.12294c-.34543,0-.62569-.28026-.62569-.62569V52.86453c0-.34543.28026-.62569.62569-.62569s.62569.28026.62569.62569v71.63272c0,.34543-.28026.62569-.62569.62569Z"/><path class="cls-3" d="M52.55454,167.62492c-.34543,0-.62569-.28026-.62569-.62569v-35.57256c0-.34543.28026-.62569.62569-.62569s.62569.28026.62569.62569v35.57256c0,.34543-.28026.62569-.62569.62569Z"/><path class="cls-3" d="M52.55454,207.64207c-.34543,0-.62569-.28026-.62569-.62569v-27.77468c0-.34543.28026-.62569.62569-.62569s.62569.28026.62569.62569v27.77468c0,.34543-.28026.62569-.62569.62569Z"/><path class="cls-3" d="M52.55454,199.72809h-9.32463c-.34543,0-.62569-.28026-.62569-.62569s.28026-.62569.62569-.62569h9.32463c.34543,0,.62569.28026.62569.62569s-.28026.62569-.62569.62569Z"/><path class="cls-3" d="M70.10394,148.45263h-36.95836c-.34543,0-.62569-.28026-.62569-.62569s.28026-.62569.62569-.62569h36.95836c.34543,0,.62569.28026.62569.62569s-.28026.62569-.62569.62569Z"/><path class="cls-3" d="M21.13408,148.45263H1.25138c-.34543,0-.62569-.28026-.62569-.62569s.28026-.62569.62569-.62569h19.8827c.34543,0,.62569.28026.62569.62569s-.28026.62569-.62569.62569Z"/><path class="cls-3" d="M143.0964,160.92606c-.34543,0-.62569-.28026-.62569-.62569v-11.84774h-62.20341c-.34543,0-.62569-.28026-.62569-.62569s.28026-.62569.62569-.62569h63.45479v13.09912c0,.34543-.28026.62569-.62569.62569Z"/><path class="cls-3" d="M143.0964,207.64207c-.34543,0-.62569-.28026-.62569-.62569v-29.16089c0-.34543.28026-.62569.62569-.62569s.62569.28026.62569.62569v29.16089c0,.34543-.28026.62569-.62569.62569Z"/><path class="cls-3" d="M147.5585,140.60302c-.34543,0-.62569-.28026-.62569-.62569v-71.11376h27.29645c.34543,0,.62569.28026.62569.62569s-.28026.62569-.62569.62569h-26.04508v69.86239c0,.34543-.28026.62569-.62569.62569Z"/><path class="cls-3" d="M147.5585,121.52605H52.55454c-.34543,0-.62569-.28026-.62569-.62569s.28026-.62569.62569-.62569h95.00396c.34543,0,.62569.28026.62569.62569s-.28026.62569-.62569.62569Z"/><path class="cls-3" d="M147.5585,136.52953h-17.09562c-.34543,0-.62569-.28026-.62569-.62569s.28026-.62569.62569-.62569h17.09562c.34543,0,.62569.28026.62569.62569s-.28026.62569-.62569.62569Z"/><path class="cls-3" d="M130.46288,140.60302c-.34543,0-.62569-.28026-.62569-.62569v-19.07697c0-.34543.28026-.62569.62569-.62569s.62569.28026.62569.62569v19.07697c0,.34543-.28026.62569-.62569.62569Z"/><path class="cls-3" d="M130.46288,148.45263c-.34543,0-.62569-.28026-.62569-.62569v-2.22209c0-.34543.28026-.62569.62569-.62569s.62569.28026.62569.62569v2.22209c0,.34543-.28026.62569-.62569.62569Z"/><path class="cls-3" d="M82.28409,129.97773c-.34543,0-.62569-.28026-.62569-.62569v-8.45168c0-.34543.28026-.62569.62569-.62569s.62569.28026.62569.62569v8.45168c0,.34543-.28026.62569-.62569.62569Z"/><path class="cls-3" d="M82.28409,148.45263c-.34543,0-.62569-.28026-.62569-.62569v-7.84961c0-.34543.28026-.62569.62569-.62569s.62569.28026.62569.62569v7.84961c0,.34543-.28026.62569-.62569.62569Z"/><path class="cls-3" d="M74.99009,141.69634h-14.64338v-14.64338h14.64338v14.64338ZM61.59809,140.44496h12.14063v-12.14063h-12.14063v12.14063Z"/><path class="cls-3" d="M60.9724,133.2797h-8.41787c-.23056,0-.41713-.18657-.41713-.41713s.18657-.41713.41713-.41713h8.41787c.23056,0,.41713.18657.41713.41713s-.18657.41713-.41713.41713Z"/><path class="cls-3" d="M60.9724,135.5523h-8.41787c-.23056,0-.41713-.18657-.41713-.41713s.18657-.41713.41713-.41713h8.41787c.23056,0,.41713.18657.41713.41713s-.18657.41713-.41713.41713Z"/><path class="cls-3" d="M60.9724,137.8249h-8.41787c-.23056,0-.41713-.18657-.41713-.41713s.18657-.41713.41713-.41713h8.41787c.23056,0,.41713.18657.41713.41713s-.18657.41713-.41713.41713Z"/><path class="cls-3" d="M60.9724,140.0975h-8.41787c-.23056,0-.41713-.18657-.41713-.41713s.18657-.41713.41713-.41713h8.41787c.23056,0,.41713.18657.41713.41713s-.18657.41713-.41713.41713Z"/><path class="cls-3" d="M62.26696,148.24407c-.23056,0-.41713-.18657-.41713-.41713v-6.75629c0-.23056.18657-.41713.41713-.41713s.41713.18657.41713.41713v6.75629c0,.23056-.18657.41713-.41713.41713Z"/><path class="cls-3" d="M64.31755,148.24407c-.23056,0-.41713-.18657-.41713-.41713v-6.75629c0-.23056.18657-.41713.41713-.41713s.41713.18657.41713.41713v6.75629c0,.23056-.18657.41713-.41713.41713Z"/><path class="cls-3" d="M66.36815,148.24407c-.23056,0-.41713-.18657-.41713-.41713v-6.75629c0-.23056.18657-.41713.41713-.41713s.41713.18657.41713.41713v6.75629c0,.23056-.18657.41713-.41713.41713Z"/><path class="cls-3" d="M68.41874,148.24407c-.23056,0-.41713-.18657-.41713-.41713v-6.75629c0-.23056.18657-.41713.41713-.41713s.41713.18657.41713.41713v6.75629c0,.23056-.18657.41713-.41713.41713Z"/><g class="cls-4"><line class="cls-2" x1="308.43938" y1="-164.0473" x2="144.75028" y2="-.35821"/><line class="cls-2" x1="311.25108" y1="-161.2356" x2="147.56199" y2="2.4535"/><line class="cls-2" x1="314.06279" y1="-158.42389" x2="150.37369" y2="5.2652"/><line class="cls-2" x1="316.87449" y1="-155.61219" x2="153.1854" y2="8.07691"/><line class="cls-2" x1="319.6862" y1="-152.80048" x2="155.9971" y2="10.88861"/><line class="cls-2" x1="322.4979" y1="-149.98878" x2="158.80881" y2="13.70032"/><line class="cls-2" x1="325.30961" y1="-147.17707" x2="161.62051" y2="16.51202"/><line class="cls-2" x1="328.12131" y1="-144.36537" x2="164.43222" y2="19.32373"/><line class="cls-2" x1="330.93302" y1="-141.55366" x2="167.24392" y2="22.13543"/><line class="cls-2" x1="333.74472" y1="-138.74196" x2="170.05563" y2="24.94714"/><line class="cls-2" x1="336.55643" y1="-135.93025" x2="172.86733" y2="27.75884"/><line class="cls-2" x1="339.36813" y1="-133.11855" x2="175.67904" y2="30.57055"/><line class="cls-2" x1="342.17984" y1="-130.30684" x2="178.49074" y2="33.38225"/><line class="cls-2" x1="344.99154" y1="-127.49514" x2="181.30245" y2="36.19396"/><line class="cls-2" x1="347.80325" y1="-124.68343" x2="184.11415" y2="39.00566"/><line class="cls-2" x1="350.61495" y1="-121.87173" x2="186.92586" y2="41.81737"/><line class="cls-2" x1="353.42666" y1="-119.06002" x2="189.73756" y2="44.62907"/><line class="cls-2" x1="356.23836" y1="-116.24832" x2="192.54927" y2="47.44078"/><line class="cls-2" x1="359.05007" y1="-113.43661" x2="195.36097" y2="50.25248"/><line class="cls-2" x1="361.86177" y1="-110.6249" x2="198.17268" y2="53.06419"/><line class="cls-2" x1="364.67348" y1="-107.8132" x2="200.98439" y2="55.8759"/><line class="cls-2" x1="367.48519" y1="-105.00149" x2="203.79609" y2="58.6876"/><line class="cls-2" x1="370.29689" y1="-102.18979" x2="206.6078" y2="61.49931"/><line class="cls-2" x1="373.1086" y1="-99.37808" x2="209.4195" y2="64.31101"/><line class="cls-2" x1="375.9203" y1="-96.56638" x2="212.23121" y2="67.12272"/><line class="cls-2" x1="378.73201" y1="-93.75467" x2="215.04291" y2="69.93442"/><line class="cls-2" x1="381.54371" y1="-90.94297" x2="217.85462" y2="72.74613"/><line class="cls-2" x1="384.35542" y1="-88.13126" x2="220.66632" y2="75.55783"/><line class="cls-2" x1="387.16712" y1="-85.31956" x2="223.47803" y2="78.36954"/><line class="cls-2" x1="389.97883" y1="-82.50785" x2="226.28973" y2="81.18124"/><line class="cls-2" x1="392.79053" y1="-79.69615" x2="229.10144" y2="83.99295"/><line class="cls-2" x1="395.60224" y1="-76.88444" x2="231.91314" y2="86.80465"/><line class="cls-2" x1="398.41394" y1="-74.07274" x2="234.72485" y2="89.61636"/><line class="cls-2" x1="401.22565" y1="-71.26103" x2="237.53655" y2="92.42806"/><line class="cls-2" x1="404.03735" y1="-68.44933" x2="240.34826" y2="95.23977"/><line class="cls-2" x1="406.84906" y1="-65.63762" x2="243.15996" y2="98.05147"/><line class="cls-2" x1="409.66076" y1="-62.82592" x2="245.97167" y2="100.86318"/><line class="cls-2" x1="412.47247" y1="-60.01421" x2="248.78337" y2="103.67488"/><line class="cls-2" x1="415.28417" y1="-57.20251" x2="251.59508" y2="106.48659"/><line class="cls-2" x1="418.09588" y1="-54.3908" x2="254.40678" y2="109.29829"/><line class="cls-2" x1="420.90758" y1="-51.5791" x2="257.21849" y2="112.11"/><line class="cls-2" x1="423.71929" y1="-48.76739" x2="260.03019" y2="114.9217"/><line class="cls-2" x1="426.53099" y1="-45.95569" x2="262.8419" y2="117.73341"/><line class="cls-2" x1="429.3427" y1="-43.14398" x2="265.6536" y2="120.54511"/><line class="cls-2" x1="432.1544" y1="-40.33228" x2="268.46531" y2="123.35682"/><line class="cls-2" x1="434.96611" y1="-37.52057" x2="271.27701" y2="126.16852"/><line class="cls-2" x1="437.77781" y1="-34.70887" x2="274.08872" y2="128.98023"/><line class="cls-2" x1="440.58952" y1="-31.89716" x2="276.90042" y2="131.79193"/><line class="cls-2" x1="443.40122" y1="-29.08546" x2="279.71213" y2="134.60364"/><line class="cls-2" x1="446.21293" y1="-26.27375" x2="282.52383" y2="137.41534"/><line class="cls-2" x1="449.02463" y1="-23.46205" x2="285.33554" y2="140.22705"/><line class="cls-2" x1="451.83634" y1="-20.65034" x2="288.14724" y2="143.03875"/><line class="cls-2" x1="454.64804" y1="-17.83864" x2="290.95895" y2="145.85046"/><line class="cls-2" x1="457.45975" y1="-15.02693" x2="293.77065" y2="148.66216"/></g></g></svg>